<svg width="16" height="16" viewBox="0 0 16 16" fill="none" xmlns="http://www.w3.org/2000/svg">
<g clip-path="url(#clip0_46_3455)">
<path d="M7.3125 1.33301H5.97917C2.64583 1.33301 1.3125 2.66634 1.3125 5.99967V9.99967C1.3125 13.333 2.64583 14.6663 5.97917 14.6663H9.97917C13.3125 14.6663 14.6458 13.333 14.6458 9.99967V8.66634" stroke="#2C7EF8" stroke-linecap="round" stroke-linejoin="round"/>
<path d="M14.5824 2.37315C13.7624 4.41982 11.7024 7.20649 9.9824 8.58649L8.92906 9.42649C8.79573 9.52649 8.6624 9.60649 8.50906 9.66649C8.50906 9.56649 8.5024 9.46649 8.48906 9.35982C8.42906 8.91315 8.22906 8.49315 7.86906 8.13982C7.5024 7.77315 7.0624 7.56649 6.60906 7.50649C6.5024 7.49982 6.39573 7.49315 6.28906 7.49982C6.34906 7.33315 6.43573 7.17982 6.54906 7.05315L7.38906 5.99982C8.76906 4.27982 11.5624 2.20649 13.6024 1.38649C13.9157 1.26649 14.2224 1.35982 14.4157 1.55315C14.6157 1.75315 14.7091 2.05982 14.5824 2.37315Z" stroke="#2C7EF8" stroke-linecap="round" stroke-linejoin="round"/>
<path d="M8.51485 9.66064C8.51485 10.2473 8.28819 10.8073 7.86819 11.234C7.54152 11.5606 7.10152 11.7873 6.57485 11.854L5.26152 11.994C4.54819 12.074 3.93485 11.4673 4.01485 10.7406L4.15485 9.42731C4.28152 8.26064 5.25485 7.51397 6.29485 7.49397C6.40152 7.48731 6.50819 7.49397 6.61485 7.50064C7.06819 7.56064 7.50819 7.76731 7.87485 8.13397C8.23485 8.49397 8.43485 8.90731 8.49485 9.35397C8.50819 9.46064 8.51485 9.56731 8.51485 9.66064Z" stroke="#2C7EF8" stroke-linecap="round" stroke-linejoin="round"/>
<path d="M10.5501 7.98663C10.5501 6.59329 9.42344 5.45996 8.02344 5.45996" stroke="#2C7EF8" stroke-linecap="round" stroke-linejoin="round"/>
</g>
<defs>
<clipPath id="clip0_46_3455">
<rect width="16" height="16" fill="white"/>
</clipPath>
</defs>
</svg>
