<svg width="16" height="16" viewBox="0 0 16 16" fill="none" xmlns="http://www.w3.org/2000/svg">
<path d="M14.6468 12.22C14.6468 12.46 14.5935 12.7067 14.4802 12.9467C14.3668 13.1867 14.2202 13.4134 14.0268 13.6267C13.7002 13.9867 13.3402 14.2467 12.9335 14.4134C12.5335 14.58 12.1002 14.6667 11.6335 14.6667C10.9535 14.6667 10.2268 14.5067 9.46016 14.18C8.6935 13.8534 7.92683 13.4134 7.16683 12.86C6.40016 12.3 5.6735 11.68 4.98016 10.9934C4.2935 10.3 3.6735 9.57337 3.12016 8.81337C2.5735 8.05337 2.1335 7.29337 1.8135 6.54004C1.4935 5.78004 1.3335 5.05337 1.3335 4.36004C1.3335 3.90671 1.4135 3.47337 1.5735 3.07337C1.7335 2.66671 1.98683 2.29337 2.34016 1.96004C2.76683 1.54004 3.2335 1.33337 3.72683 1.33337C3.9135 1.33337 4.10016 1.37337 4.26683 1.45337C4.44016 1.53337 4.5935 1.65337 4.7135 1.82671L6.26016 4.00671C6.38016 4.17337 6.46683 4.32671 6.52683 4.47337C6.58683 4.61337 6.62016 4.75337 6.62016 4.88004C6.62016 5.04004 6.5735 5.20004 6.48016 5.35337C6.3935 5.50671 6.26683 5.66671 6.10683 5.82671L5.60016 6.35337C5.52683 6.42671 5.4935 6.51337 5.4935 6.62004C5.4935 6.67337 5.50016 6.72004 5.5135 6.77337C5.5335 6.82671 5.5535 6.86671 5.56683 6.90671C5.68683 7.12671 5.8935 7.41337 6.18683 7.76004C6.48683 8.10671 6.80683 8.46004 7.1535 8.81337C7.5135 9.16671 7.86016 9.49337 8.2135 9.79337C8.56016 10.0867 8.84683 10.2867 9.0735 10.4067C9.10683 10.42 9.14683 10.44 9.1935 10.46C9.24683 10.48 9.30016 10.4867 9.36016 10.4867C9.4735 10.4867 9.56016 10.4467 9.6335 10.3734L10.1402 9.87337C10.3068 9.70671 10.4668 9.58004 10.6202 9.50004C10.7735 9.40671 10.9268 9.36004 11.0935 9.36004C11.2202 9.36004 11.3535 9.38671 11.5002 9.44671C11.6468 9.50671 11.8002 9.59337 11.9668 9.70671L14.1735 11.2734C14.3468 11.3934 14.4668 11.5334 14.5402 11.7C14.6068 11.8667 14.6468 12.0334 14.6468 12.22Z" stroke="#292D32" stroke-miterlimit="10"/>
</svg>
