<svg width="40" height="40" viewBox="0 0 40 40" fill="none" xmlns="http://www.w3.org/2000/svg">
<rect x="0.5" y="0.5" width="39" height="39" rx="5.5" stroke="#E3E3E3"/>
<path d="M20.5856 25.1379V14.931C20.5856 14.7931 20.5166 14.7242 20.3787 14.7242C17.4132 14.7242 15.0684 17.069 15.0684 20.0345C15.0684 23 17.4132 25.3448 20.3787 25.3448C20.4477 25.4138 20.5856 25.2759 20.5856 25.1379Z" fill="#5C5F61"/>
<path d="M25.9653 19.8965C25.8274 17.3448 24.0343 15.2759 21.5515 14.8621C21.4136 14.8621 21.3446 14.931 21.2756 15.069C21.2756 15.1379 21.2756 15.2069 21.3446 15.2759C22.7929 16.3793 23.6894 18.1034 23.6894 19.9655C23.8963 21.9655 22.9998 23.8965 21.3446 25.069C21.2756 25.1379 21.2067 25.2759 21.2756 25.3448C21.3446 25.4138 21.4136 25.4138 21.4825 25.4138C21.4825 25.4138 21.4825 25.4138 21.5515 25.4138C24.1722 24.931 26.0343 22.5862 25.9653 19.8965Z" fill="#5C5F61"/>
<path d="M20.3105 13.5517C20.6553 13.5517 20.8622 13.2759 20.8622 13V9.55172C20.8622 9.2069 20.5864 9 20.3105 9C19.9657 9 19.7588 9.27586 19.7588 9.55172V12.931C19.7588 13.2759 20.0347 13.5517 20.3105 13.5517Z" fill="#5C5F61"/>
<path d="M14.9307 15.4138C15.1376 15.6207 15.4824 15.6207 15.7582 15.4138C15.9651 15.2069 15.9651 14.8621 15.7582 14.5862L13.4134 12.2414C13.2065 12.0345 12.8617 12.0345 12.5858 12.2414C12.3789 12.4483 12.3789 12.7931 12.5858 13.069L14.9307 15.4138Z" fill="#5C5F61"/>
<path d="M20.3105 26.5172C19.9657 26.5172 19.7588 26.7931 19.7588 27.069V30.4483C19.7588 30.7931 20.0347 31 20.3105 31C20.5864 31 20.8622 30.7241 20.8622 30.4483V27.069C20.9312 26.7931 20.6553 26.5172 20.3105 26.5172Z" fill="#5C5F61"/>
<path d="M15.3445 24.4483C15.2065 24.4483 15.0686 24.5172 14.9307 24.5862L12.5858 26.931C12.3789 27.1379 12.3789 27.4828 12.5858 27.7586C12.7927 27.9655 13.1376 27.9655 13.4134 27.7586L15.7582 25.4138C15.9651 25.2069 15.9651 24.8621 15.7582 24.5862C15.6203 24.5172 15.4824 24.4483 15.3445 24.4483Z" fill="#5C5F61"/>
<path d="M13.8276 20.0345C13.8276 19.6897 13.5517 19.4828 13.2759 19.4828H9.55172C9.2069 19.4828 9 19.7586 9 20.1034C9 20.3793 9.27586 20.6552 9.55172 20.6552H13.2069C13.5517 20.5862 13.8276 20.3793 13.8276 20.0345Z" fill="#5C5F61"/>
<path d="M27.2755 13.5517C26.5858 13.3448 26.4479 13.2069 26.31 12.3104C26.31 12.2414 26.241 12.1724 26.172 12.1724C26.1031 12.1724 26.0341 12.2414 26.0341 12.3104C25.8962 13.2069 25.7582 13.3448 25.0686 13.5517C24.9996 13.5517 24.9307 13.6897 24.9307 13.7586C24.9307 13.8276 24.9996 13.8276 25.0686 13.8966C25.7582 14.1035 25.8962 14.2414 26.0341 15.1379C26.0341 15.2069 26.1031 15.2759 26.172 15.2759C26.241 15.2759 26.31 15.2069 26.31 15.1379C26.4479 14.2414 26.5858 14.1035 27.2755 13.8966C27.3445 13.8966 27.4134 13.7586 27.4134 13.6897C27.3445 13.5517 27.3445 13.5517 27.2755 13.5517Z" fill="#5C5F61"/>
<path d="M27.2755 26.5172C26.5858 26.3104 26.4479 26.1724 26.31 25.2759C26.31 25.2069 26.241 25.1379 26.172 25.1379C26.1031 25.1379 26.0341 25.2069 26.0341 25.2759C25.8962 26.1724 25.7582 26.3104 25.0686 26.5172C24.9996 26.5172 24.9307 26.6552 24.9307 26.7241C24.9307 26.7931 24.9996 26.7931 25.0686 26.8621C25.7582 27.069 25.8962 27.2069 26.0341 28.1035C26.0341 28.1724 26.1031 28.2414 26.172 28.2414C26.241 28.2414 26.31 28.1724 26.31 28.1035C26.4479 27.2069 26.5858 27.069 27.2755 26.8621C27.3445 26.8621 27.4134 26.7931 27.4134 26.7241C27.4134 26.5862 27.3445 26.5172 27.2755 26.5172Z" fill="#5C5F61"/>
<path d="M30.5175 19.8276C29.552 19.5517 29.4141 19.2759 29.2072 18.1034C29.2072 18.0345 29.1382 17.9655 29.0692 17.9655C29.0003 17.9655 28.9313 18.0345 28.9313 18.1034C28.7244 19.2759 28.5175 19.4828 27.552 19.7586C27.483 19.7586 27.4141 19.8276 27.4141 19.9655C27.4141 20.0345 27.483 20.0345 27.483 20.1034C28.4485 20.3793 28.5865 20.6552 28.7934 21.8276C28.7934 21.8965 28.8623 21.9655 28.9313 21.9655C29.0003 21.9655 29.0692 21.8965 29.0692 21.8276C29.2761 20.6552 29.483 20.4483 30.4485 20.1724C30.5175 20.1724 30.5865 20.1034 30.5865 19.9655C30.5865 19.8965 30.5865 19.8276 30.5175 19.8276Z" fill="#5C5F61"/>
</svg>
