<svg width="24" height="24" viewBox="0 0 24 24" fill="none" xmlns="http://www.w3.org/2000/svg">
<path fill-rule="evenodd" clip-rule="evenodd" d="M10.4531 2.35651C11.0567 2.92408 10.9112 3.78313 10.6351 4.41723L10.6346 4.4184C10.2222 5.36102 9.99546 6.39431 10.0039 7.48732L10.0039 7.48998C10.0207 11.5459 13.3932 15.0084 17.524 15.1774L17.5246 15.1774C18.1346 15.2028 18.7176 15.1605 19.2836 15.0592C19.6627 14.9902 20.0353 14.9778 20.3713 15.0562C20.7141 15.1361 21.0594 15.3233 21.274 15.6744C21.4876 16.0239 21.4975 16.4148 21.417 16.7535C21.3378 17.087 21.1636 17.4135 20.9367 17.7209C18.9616 20.4231 15.6737 22.1339 12.0049 21.9748L12.0044 21.9748C6.7973 21.7458 2.43944 17.5811 2.07882 12.4289C1.74942 7.86208 4.45997 3.88545 8.39837 2.22456C9.03118 1.95654 9.8729 1.81093 10.4531 2.35651ZM9.36518 3.49126C9.27774 3.50302 9.15075 3.5348 8.98257 3.60611L8.98123 3.60668C5.59592 5.03433 3.29446 8.43675 3.57499 12.3217L3.57511 12.3234C3.88073 16.6955 7.60466 20.2796 12.0699 20.4762C15.2249 20.613 18.0397 19.1433 19.7267 16.8344L19.7291 16.8312C19.8307 16.6936 19.8907 16.5838 19.9246 16.5035C19.8393 16.4992 19.7168 16.5049 19.5514 16.5351L19.549 16.5355C18.8764 16.656 18.1838 16.7061 17.4627 16.6761C12.5499 16.4752 8.52483 12.374 8.50391 7.49753C8.49401 6.1869 8.76657 4.94596 9.26011 3.81768C9.32211 3.67519 9.352 3.56714 9.36518 3.49126ZM9.48777 3.48881C9.48775 3.48883 9.48728 3.48872 9.48639 3.48846L9.48777 3.48881Z" fill="#5C5F61"/>
</svg>
