<svg width="24" height="24" viewBox="0 0 24 24" fill="none" xmlns="http://www.w3.org/2000/svg">
<path fill-rule="evenodd" clip-rule="evenodd" d="M10.4528 2.35651C11.0564 2.92408 10.9109 3.78313 10.6347 4.41723L10.6342 4.4184C10.2218 5.36102 9.9951 6.39431 10.0035 7.48732L10.0035 7.48998C10.0203 11.5459 13.3928 15.0084 17.5236 15.1774L17.5242 15.1774C18.1343 15.2028 18.7172 15.1605 19.2833 15.0592C19.6624 14.9902 20.0349 14.9778 20.3709 15.0562C20.7138 15.1361 21.059 15.3233 21.2736 15.6744C21.4872 16.0239 21.4971 16.4148 21.4166 16.7535C21.3374 17.087 21.1632 17.4135 20.9364 17.7209C18.9612 20.4231 15.6734 22.1339 12.0045 21.9748L12.004 21.9748C6.79694 21.7458 2.43907 17.5811 2.07846 12.4289C1.74905 7.86208 4.4596 3.88545 8.398 2.22456C9.03081 1.95654 9.87253 1.81093 10.4528 2.35651ZM9.36482 3.49126C9.27737 3.50302 9.15039 3.5348 8.9822 3.60611L8.98087 3.60668C5.59555 5.03433 3.29409 8.43675 3.57462 12.3217L3.57475 12.3234C3.88037 16.6955 7.6043 20.2796 12.0695 20.4762C15.2245 20.613 18.0394 19.1433 19.7264 16.8344L19.7287 16.8312C19.8304 16.6936 19.8903 16.5838 19.9243 16.5035C19.8389 16.4992 19.7164 16.5049 19.5511 16.5351L19.5487 16.5355C18.876 16.656 18.1834 16.7061 17.4623 16.6761C12.5496 16.4752 8.52446 12.374 8.50354 7.49753C8.49365 6.1869 8.7662 4.94596 9.25974 3.81768C9.32174 3.67519 9.35163 3.56714 9.36482 3.49126ZM9.4874 3.48881C9.48739 3.48883 9.48691 3.48872 9.48602 3.48846L9.4874 3.48881Z" fill="#D8D8D8"/>
</svg>
