<svg width="24" height="24" viewBox="0 0 24 24" fill="none" xmlns="http://www.w3.org/2000/svg">
<g clip-path="url(#clip0_6_5947)">
<path d="M3.42857 2.57143C3.42857 1.88944 3.69949 1.23539 4.18173 0.753154C4.66396 0.270918 5.31801 0 6 0H18C18.682 0 19.336 0.270918 19.8183 0.753154C20.3005 1.23539 20.5714 1.88944 20.5714 2.57143V6.85714H18.8571V2.57143C18.8571 2.3441 18.7668 2.12608 18.6061 1.96534C18.4453 1.80459 18.2273 1.71429 18 1.71429H6C5.77267 1.71429 5.55465 1.80459 5.39391 1.96534C5.23316 2.12608 5.14286 2.3441 5.14286 2.57143V8.57143H14.5714C14.0139 9.31269 13.713 10.2154 13.7143 11.1429V21.4286C13.7143 22.3937 14.0331 23.2834 14.5714 24H2.57143C1.88944 24 1.23539 23.7291 0.753154 23.2468C0.270918 22.7646 0 22.1106 0 21.4286V12C0 11.0907 0.361223 10.2186 1.00421 9.57563C1.64719 8.93265 2.51926 8.57143 3.42857 8.57143V2.57143ZM5.57143 13.0714C5.57143 12.7873 5.45855 12.5147 5.25761 12.3138C5.05668 12.1129 4.78416 12 4.5 12C4.21584 12 3.94332 12.1129 3.74239 12.3138C3.54145 12.5147 3.42857 12.7873 3.42857 13.0714C3.42857 13.3556 3.54145 13.6281 3.74239 13.829C3.94332 14.03 4.21584 14.1429 4.5 14.1429C4.78416 14.1429 5.05668 14.03 5.25761 13.829C5.45855 13.6281 5.57143 13.3556 5.57143 13.0714ZM5.57143 16.9286C5.57143 16.6444 5.45855 16.3719 5.25761 16.171C5.05668 15.97 4.78416 15.8571 4.5 15.8571C4.21584 15.8571 3.94332 15.97 3.74239 16.171C3.54145 16.3719 3.42857 16.6444 3.42857 16.9286C3.42857 17.2127 3.54145 17.4853 3.74239 17.6862C3.94332 17.8871 4.21584 18 4.5 18C4.78416 18 5.05668 17.8871 5.25761 17.6862C5.45855 17.4853 5.57143 17.2127 5.57143 16.9286ZM8.35714 16.0714C8.07298 16.0714 7.80046 16.1843 7.59953 16.3852C7.3986 16.5862 7.28571 16.8587 7.28571 17.1429C7.28571 17.427 7.3986 17.6995 7.59953 17.9005C7.80046 18.1014 8.07298 18.2143 8.35714 18.2143C8.6413 18.2143 8.91383 18.1014 9.11476 17.9005C9.31569 17.6995 9.42857 17.427 9.42857 17.1429C9.42857 16.8587 9.31569 16.5862 9.11476 16.3852C8.91383 16.1843 8.6413 16.0714 8.35714 16.0714ZM9.42857 13.0714C9.42857 12.7873 9.31569 12.5147 9.11476 12.3138C8.91383 12.1129 8.6413 12 8.35714 12C8.07298 12 7.80046 12.1129 7.59953 12.3138C7.3986 12.5147 7.28571 12.7873 7.28571 13.0714C7.28571 13.3556 7.3986 13.6281 7.59953 13.829C7.80046 14.03 8.07298 14.1429 8.35714 14.1429C8.6413 14.1429 8.91383 14.03 9.11476 13.829C9.31569 13.6281 9.42857 13.3556 9.42857 13.0714ZM18 8.57143C17.318 8.57143 16.664 8.84235 16.1817 9.32458C15.6995 9.80682 15.4286 10.4609 15.4286 11.1429V21.4286C15.4286 22.1106 15.6995 22.7646 16.1817 23.2468C16.664 23.7291 17.318 24 18 24H21.4286C22.1106 24 22.7646 23.7291 23.2468 23.2468C23.7291 22.7646 24 22.1106 24 21.4286V11.1429C24 10.4609 23.7291 9.80682 23.2468 9.32458C22.7646 8.84235 22.1106 8.57143 21.4286 8.57143H18Z" fill="white"/>
</g>
<defs>
<clipPath id="clip0_6_5947">
<rect width="24" height="24" fill="white"/>
</clipPath>
</defs>
</svg>
