<svg width="32" height="32" viewBox="0 0 32 32" fill="none" xmlns="http://www.w3.org/2000/svg">
<path d="M16.0001 0C7.16461 0 0 7.34466 0 16.405C0 23.6533 4.5845 29.8026 10.9419 31.9718C11.7415 32.1236 12.0351 31.6159 12.0351 31.1826C12.0351 30.7915 12.0202 29.4991 12.0134 28.1283C7.56202 29.1207 6.62276 26.1927 6.62276 26.1927C5.89494 24.2965 4.84626 23.7924 4.84626 23.7924C3.39464 22.7742 4.95568 22.795 4.95568 22.795C6.5624 22.9108 7.40843 24.4856 7.40843 24.4856C8.83545 26.9936 11.1514 26.2685 12.0645 25.8495C12.208 24.789 12.6227 24.0654 13.0803 23.6558C9.5265 23.2408 5.79054 21.8342 5.79054 15.5483C5.79054 13.7573 6.41559 12.2938 7.43917 11.1449C7.27303 10.7317 6.72541 9.0632 7.59415 6.80351C7.59415 6.80351 8.93772 6.36259 11.9953 8.48512C13.2715 8.12152 14.6403 7.93934 16.0001 7.93316C17.3598 7.93934 18.7296 8.12152 20.0083 8.48512C23.0623 6.36259 24.404 6.80351 24.404 6.80351C25.2748 9.0632 24.727 10.7317 24.5608 11.1449C25.5867 12.2938 26.2075 13.7572 26.2075 15.5483C26.2075 21.8491 22.4645 23.2366 18.9017 23.6426C19.4755 24.1518 19.9869 25.1502 19.9869 26.6806C19.9869 28.8756 19.9683 30.6422 19.9683 31.1826C19.9683 31.6192 20.2563 32.1307 21.0674 31.9696C27.4213 29.798 32 23.6509 32 16.405C32 7.34466 24.8364 0 16.0001 0Z" fill="white"/>
<path d="M5.99251 23.3694C5.95737 23.4508 5.83213 23.4753 5.71832 23.4194C5.60224 23.3659 5.53699 23.2547 5.57464 23.1729C5.60915 23.089 5.73438 23.0656 5.8502 23.122C5.96653 23.1754 6.03279 23.2875 5.99251 23.3694ZM6.77955 24.0894C6.70326 24.1619 6.55406 24.1282 6.45279 24.0136C6.34813 23.8992 6.32856 23.7464 6.40598 23.6726C6.48466 23.6002 6.62935 23.634 6.73425 23.7485C6.83891 23.8642 6.85924 24.0162 6.77943 24.0895L6.77955 24.0894ZM7.31952 25.0106C7.22139 25.0804 7.06102 25.015 6.96201 24.8691C6.86401 24.7233 6.86401 24.5483 6.96414 24.4782C7.06353 24.4081 7.22139 24.4711 7.32178 24.6158C7.41966 24.7642 7.41966 24.9392 7.31939 25.0107L7.31952 25.0106ZM8.23256 26.0776C8.14484 26.1766 7.95812 26.1501 7.82134 26.0148C7.68155 25.8825 7.64252 25.6948 7.73049 25.5956C7.81921 25.4963 8.00706 25.5242 8.14484 25.6584C8.28375 25.7904 8.32617 25.9795 8.23268 26.0776H8.23256ZM9.41263 26.4378C9.3741 26.5662 9.19416 26.6246 9.01295 26.5701C8.832 26.5139 8.71354 26.3633 8.75006 26.2335C8.78771 26.1042 8.96841 26.0434 9.15099 26.1018C9.33169 26.1577 9.4504 26.3071 9.41275 26.4378H9.41263ZM10.7558 26.5906C10.7603 26.7259 10.6066 26.8381 10.4164 26.8405C10.225 26.8448 10.0703 26.7353 10.0683 26.6023C10.0683 26.4656 10.2185 26.3545 10.4097 26.3512C10.6 26.3474 10.7558 26.4561 10.7558 26.5906ZM12.0752 26.5387C12.098 26.6707 11.9658 26.8063 11.7769 26.8423C11.5912 26.8771 11.4193 26.7956 11.3956 26.6648C11.3725 26.5294 11.5072 26.394 11.6926 26.3588C11.8818 26.3251 12.0511 26.4045 12.0752 26.5387Z" fill="white"/>
</svg>
