<svg width="22" height="22" viewBox="0 0 22 22" fill="none" xmlns="http://www.w3.org/2000/svg">
<path d="M11.586 16.1379V5.93102C11.586 5.79309 11.5171 5.72412 11.3791 5.72412C8.41361 5.72412 6.06879 8.06895 6.06879 11.0345C6.06879 14 8.41361 16.3448 11.3791 16.3448C11.4481 16.4138 11.586 16.2758 11.586 16.1379Z" fill="white"/>
<path d="M16.9656 10.8965C16.8277 8.34482 15.0346 6.27585 12.5518 5.86206C12.4139 5.86206 12.3449 5.93103 12.2759 6.06896C12.2759 6.13792 12.2759 6.20689 12.3449 6.27585C13.7932 7.3793 14.6897 9.10344 14.6897 10.9655C14.8966 12.9655 14.0001 14.8965 12.3449 16.069C12.2759 16.1379 12.207 16.2759 12.2759 16.3448C12.3449 16.4138 12.4139 16.4138 12.4828 16.4138C12.4828 16.4138 12.4828 16.4138 12.5518 16.4138C15.1725 15.931 17.0346 13.5862 16.9656 10.8965Z" fill="white"/>
<path d="M11.31 4.55172C11.6549 4.55172 11.8617 4.27586 11.8617 4V0.551724C11.8617 0.206896 11.5859 0 11.31 0C10.9652 0 10.7583 0.275862 10.7583 0.551724V3.93103C10.7583 4.27586 11.0342 4.55172 11.31 4.55172Z" fill="white"/>
<path d="M5.93072 6.41377C6.13762 6.62066 6.48245 6.62066 6.75831 6.41377C6.96521 6.20687 6.96521 5.86204 6.75831 5.58618L4.41348 3.24135C4.20659 3.03446 3.86176 3.03446 3.5859 3.24135C3.379 3.44825 3.379 3.79308 3.5859 4.06894L5.93072 6.41377Z" fill="white"/>
<path d="M11.31 17.5172C10.9652 17.5172 10.7583 17.7931 10.7583 18.0689V21.4482C10.7583 21.7931 11.0342 22 11.31 22C11.5859 22 11.8617 21.7241 11.8617 21.4482V18.0689C11.9307 17.7931 11.6549 17.5172 11.31 17.5172Z" fill="white"/>
<path d="M6.34452 15.4483C6.20659 15.4483 6.06866 15.5173 5.93072 15.5862L3.5859 17.9311C3.379 18.138 3.379 18.4828 3.5859 18.7586C3.79279 18.9655 4.13762 18.9655 4.41348 18.7586L6.75831 16.4138C6.96521 16.2069 6.96521 15.8621 6.75831 15.5862C6.62038 15.5173 6.48245 15.4483 6.34452 15.4483Z" fill="white"/>
<path d="M4.82753 11.0345C4.82753 10.6897 4.55166 10.4828 4.2758 10.4828H0.551663C0.206836 10.4828 -6.10352e-05 10.7586 -6.10352e-05 11.1035C-6.10352e-05 11.3793 0.275801 11.6552 0.551663 11.6552H4.20684C4.55166 11.5862 4.82753 11.3793 4.82753 11.0345Z" fill="white"/>
<path d="M18.2756 4.55173C17.5859 4.34484 17.448 4.20691 17.31 3.31036C17.31 3.24139 17.2411 3.17242 17.1721 3.17242C17.1031 3.17242 17.0342 3.24139 17.0342 3.31036C16.8962 4.20691 16.7583 4.34484 16.0687 4.55173C15.9997 4.55173 15.9307 4.68967 15.9307 4.75863C15.9307 4.8276 15.9997 4.8276 16.0687 4.89656C16.7583 5.10346 16.8962 5.24139 17.0342 6.13794C17.0342 6.20691 17.1031 6.27587 17.1721 6.27587C17.2411 6.27587 17.31 6.20691 17.31 6.13794C17.448 5.24139 17.5859 5.10346 18.2756 4.89656C18.3445 4.89656 18.4135 4.75863 18.4135 4.68967C18.3445 4.55173 18.3445 4.55173 18.2756 4.55173Z" fill="white"/>
<path d="M18.2756 17.5172C17.5859 17.3104 17.448 17.1724 17.31 16.2759C17.31 16.2069 17.2411 16.1379 17.1721 16.1379C17.1031 16.1379 17.0342 16.2069 17.0342 16.2759C16.8962 17.1724 16.7583 17.3104 16.0687 17.5172C15.9997 17.5172 15.9307 17.6552 15.9307 17.7241C15.9307 17.7931 15.9997 17.7931 16.0687 17.8621C16.7583 18.069 16.8962 18.2069 17.0342 19.1035C17.0342 19.1724 17.1031 19.2414 17.1721 19.2414C17.2411 19.2414 17.31 19.1724 17.31 19.1035C17.448 18.2069 17.5859 18.069 18.2756 17.8621C18.3445 17.8621 18.4135 17.7931 18.4135 17.7241C18.4135 17.5862 18.3445 17.5172 18.2756 17.5172Z" fill="white"/>
<path d="M21.5173 10.8276C20.5518 10.5517 20.4139 10.2759 20.207 9.10345C20.207 9.03448 20.138 8.96552 20.0691 8.96552C20.0001 8.96552 19.9311 9.03448 19.9311 9.10345C19.7242 10.2759 19.5173 10.4828 18.5518 10.7586C18.4828 10.7586 18.4139 10.8276 18.4139 10.9655C18.4139 11.0345 18.4828 11.0345 18.4828 11.1034C19.4484 11.3793 19.5863 11.6552 19.7932 12.8276C19.7932 12.8965 19.8622 12.9655 19.9311 12.9655C20.0001 12.9655 20.0691 12.8965 20.0691 12.8276C20.2759 11.6552 20.4828 11.4483 21.4484 11.1724C21.5173 11.1724 21.5863 11.1034 21.5863 10.9655C21.5863 10.8965 21.5863 10.8276 21.5173 10.8276Z" fill="white"/>
</svg>
