<svg width="24" height="24" viewBox="0 0 24 24" fill="none" xmlns="http://www.w3.org/2000/svg">
<path fill-rule="evenodd" clip-rule="evenodd" d="M11.9999 6.8555C9.1668 6.8555 6.87012 9.15218 6.87012 11.9853C6.87012 14.8184 9.1668 17.1151 11.9999 17.1151C14.833 17.1151 17.1297 14.8184 17.1297 11.9853C17.1297 9.15218 14.833 6.8555 11.9999 6.8555ZM5.37012 11.9853C5.37012 8.32375 8.33837 5.3555 11.9999 5.3555C15.6614 5.3555 18.6297 8.32375 18.6297 11.9853C18.6297 15.6468 15.6614 18.6151 11.9999 18.6151C8.33837 18.6151 5.37012 15.6468 5.37012 11.9853Z" fill="#5C5F61"/>
<path fill-rule="evenodd" clip-rule="evenodd" d="M11.9999 1.93948C12.5522 1.93948 12.9999 2.3872 12.9999 2.93948V3.01185C12.9999 3.56413 12.5522 4.01185 11.9999 4.01185C11.4476 4.01185 10.9999 3.56413 10.9999 3.01185V2.93948C10.9999 2.3872 11.4476 1.93948 11.9999 1.93948ZM4.8341 4.81948C5.22462 4.42896 5.85779 4.42896 6.24831 4.81948L6.36591 4.93708C6.75643 5.3276 6.75643 5.96076 6.36591 6.35129C5.97538 6.74181 5.34222 6.74181 4.95169 6.35129L4.8341 6.23369C4.44357 5.84317 4.44357 5.21 4.8341 4.81948ZM19.1657 4.81948C19.5563 5.21001 19.5563 5.84318 19.1657 6.2337L19.0481 6.35129C18.6576 6.74181 18.0244 6.74181 17.6339 6.35128C17.2434 5.96076 17.2434 5.32759 17.6339 4.93707L17.7515 4.81948C18.1421 4.42895 18.7752 4.42896 19.1657 4.81948ZM1.9541 11.9853C1.9541 11.433 2.40182 10.9853 2.9541 10.9853H3.02647C3.57875 10.9853 4.02647 11.433 4.02647 11.9853C4.02647 12.5376 3.57875 12.9853 3.02647 12.9853H2.9541C2.40182 12.9853 1.9541 12.5376 1.9541 11.9853ZM19.9734 11.9853C19.9734 11.433 20.4211 10.9853 20.9734 10.9853H21.0457C21.598 10.9853 22.0457 11.433 22.0457 11.9853C22.0457 12.5376 21.598 12.9853 21.0457 12.9853H20.9734C20.4211 12.9853 19.9734 12.5376 19.9734 11.9853ZM6.3659 17.6193C6.75643 18.0098 6.75643 18.643 6.36591 19.0335L6.24832 19.1511C5.85779 19.5416 5.22463 19.5416 4.8341 19.1511C4.44358 18.7606 4.44357 18.1274 4.83409 17.7369L4.95169 17.6193C5.34221 17.2288 5.97538 17.2288 6.3659 17.6193ZM17.6339 17.6193C18.0244 17.2288 18.6576 17.2288 19.0481 17.6193L19.1657 17.7369C19.5563 18.1274 19.5563 18.7606 19.1657 19.1511C18.7752 19.5416 18.142 19.5416 17.7515 19.1511L17.6339 19.0335C17.2434 18.643 17.2434 18.0098 17.6339 17.6193ZM11.9999 19.9587C12.5522 19.9587 12.9999 20.4065 12.9999 20.9587V21.0311C12.9999 21.5834 12.5522 22.0311 11.9999 22.0311C11.4476 22.0311 10.9999 21.5834 10.9999 21.0311V20.9587C10.9999 20.4065 11.4476 19.9587 11.9999 19.9587Z" fill="#5C5F61"/>
</svg>
