<svg width="24" height="24" viewBox="0 0 24 24" fill="none" xmlns="http://www.w3.org/2000/svg">
<path d="M12.5856 17.1379V6.93102C12.5856 6.79309 12.5166 6.72412 12.3787 6.72412C9.41319 6.72412 7.06836 9.06895 7.06836 12.0345C7.06836 15 9.41319 17.3448 12.3787 17.3448C12.4477 17.4138 12.5856 17.2758 12.5856 17.1379Z" fill="#5C5F61"/>
<path d="M17.9653 11.8965C17.8274 9.34482 16.0343 7.27585 13.5515 6.86206C13.4136 6.86206 13.3446 6.93103 13.2756 7.06896C13.2756 7.13792 13.2756 7.20689 13.3446 7.27585C14.7929 8.3793 15.6894 10.1034 15.6894 11.9655C15.8963 13.9655 14.9998 15.8965 13.3446 17.069C13.2756 17.1379 13.2067 17.2759 13.2756 17.3448C13.3446 17.4138 13.4136 17.4138 13.4825 17.4138C13.4825 17.4138 13.4825 17.4138 13.5515 17.4138C16.1722 16.931 18.0343 14.5862 17.9653 11.8965Z" fill="#5C5F61"/>
<path d="M12.3105 5.55172C12.6553 5.55172 12.8622 5.27586 12.8622 5V1.55172C12.8622 1.2069 12.5864 1 12.3105 1C11.9657 1 11.7588 1.27586 11.7588 1.55172V4.93103C11.7588 5.27586 12.0347 5.55172 12.3105 5.55172Z" fill="#5C5F61"/>
<path d="M6.93066 7.41377C7.13756 7.62066 7.48239 7.62066 7.75825 7.41377C7.96515 7.20687 7.96515 6.86204 7.75825 6.58618L5.41342 4.24135C5.20653 4.03446 4.8617 4.03446 4.58584 4.24135C4.37894 4.44825 4.37894 4.79308 4.58584 5.06894L6.93066 7.41377Z" fill="#5C5F61"/>
<path d="M12.3105 18.5172C11.9657 18.5172 11.7588 18.7931 11.7588 19.0689V22.4482C11.7588 22.7931 12.0347 23 12.3105 23C12.5864 23 12.8622 22.7241 12.8622 22.4482V19.0689C12.9312 18.7931 12.6553 18.5172 12.3105 18.5172Z" fill="#5C5F61"/>
<path d="M7.34446 16.4483C7.20653 16.4483 7.06859 16.5173 6.93066 16.5862L4.58584 18.9311C4.37894 19.138 4.37894 19.4828 4.58584 19.7586C4.79273 19.9655 5.13756 19.9655 5.41342 19.7586L7.75825 17.4138C7.96515 17.2069 7.96515 16.8621 7.75825 16.5862C7.62032 16.5173 7.48239 16.4483 7.34446 16.4483Z" fill="#5C5F61"/>
<path d="M5.82759 12.0345C5.82759 11.6897 5.55172 11.4828 5.27586 11.4828H1.55172C1.2069 11.4828 1 11.7586 1 12.1035C1 12.3793 1.27586 12.6552 1.55172 12.6552H5.2069C5.55172 12.5862 5.82759 12.3793 5.82759 12.0345Z" fill="#5C5F61"/>
<path d="M19.2755 5.55173C18.5858 5.34484 18.4479 5.20691 18.31 4.31036C18.31 4.24139 18.241 4.17242 18.172 4.17242C18.1031 4.17242 18.0341 4.24139 18.0341 4.31036C17.8962 5.20691 17.7582 5.34484 17.0686 5.55173C16.9996 5.55173 16.9307 5.68967 16.9307 5.75863C16.9307 5.8276 16.9996 5.8276 17.0686 5.89656C17.7582 6.10346 17.8962 6.24139 18.0341 7.13794C18.0341 7.20691 18.1031 7.27587 18.172 7.27587C18.241 7.27587 18.31 7.20691 18.31 7.13794C18.4479 6.24139 18.5858 6.10346 19.2755 5.89656C19.3445 5.89656 19.4134 5.75863 19.4134 5.68967C19.3445 5.55173 19.3445 5.55173 19.2755 5.55173Z" fill="#5C5F61"/>
<path d="M19.2755 18.5172C18.5858 18.3104 18.4479 18.1724 18.31 17.2759C18.31 17.2069 18.241 17.1379 18.172 17.1379C18.1031 17.1379 18.0341 17.2069 18.0341 17.2759C17.8962 18.1724 17.7582 18.3104 17.0686 18.5172C16.9996 18.5172 16.9307 18.6552 16.9307 18.7241C16.9307 18.7931 16.9996 18.7931 17.0686 18.8621C17.7582 19.069 17.8962 19.2069 18.0341 20.1035C18.0341 20.1724 18.1031 20.2414 18.172 20.2414C18.241 20.2414 18.31 20.1724 18.31 20.1035C18.4479 19.2069 18.5858 19.069 19.2755 18.8621C19.3445 18.8621 19.4134 18.7931 19.4134 18.7241C19.4134 18.5862 19.3445 18.5172 19.2755 18.5172Z" fill="#5C5F61"/>
<path d="M22.5175 11.8276C21.552 11.5517 21.4141 11.2759 21.2072 10.1034C21.2072 10.0345 21.1382 9.96552 21.0692 9.96552C21.0003 9.96552 20.9313 10.0345 20.9313 10.1034C20.7244 11.2759 20.5175 11.4828 19.552 11.7586C19.483 11.7586 19.4141 11.8276 19.4141 11.9655C19.4141 12.0345 19.483 12.0345 19.483 12.1034C20.4485 12.3793 20.5865 12.6552 20.7934 13.8276C20.7934 13.8965 20.8623 13.9655 20.9313 13.9655C21.0003 13.9655 21.0692 13.8965 21.0692 13.8276C21.2761 12.6552 21.483 12.4483 22.4485 12.1724C22.5175 12.1724 22.5865 12.1034 22.5865 11.9655C22.5865 11.8965 22.5865 11.8276 22.5175 11.8276Z" fill="#5C5F61"/>
</svg>
