<svg width="16" height="16" viewBox="0 0 16 16" fill="none" xmlns="http://www.w3.org/2000/svg">
<path fill-rule="evenodd" clip-rule="evenodd" d="M0 8C0 3.58172 3.58172 0 8 0C12.4183 0 16 3.58172 16 8C16 12.4183 12.4183 16 8 16C3.58172 16 0 12.4183 0 8ZM4.1 6.65V12H5.8V6.65H4.1ZM4 4.95C4 5.5 4.4 5.9 4.95 5.9C5.5 5.9 5.9 5.5 5.9 4.95C5.9 4.4 5.5 4 4.95 4C4.45 4 4 4.4 4 4.95ZM10.3 12H11.9V8.7C11.9 7.05 10.9 6.5 9.95 6.5C9.1 6.5 8.5 7.05 8.35 7.4V6.65H6.75V12H8.45V9.15C8.45 8.4 8.95 8 9.45 8C9.95 8 10.3 8.25 10.3 9.1V12Z" fill="black"/>
</svg>
