<svg width="190" height="202" viewBox="0 0 190 202" fill="none" xmlns="http://www.w3.org/2000/svg">
<rect width="190" height="394" rx="21.0133" fill="#2F3132"/>
<rect x="8" y="8" width="175" height="379" rx="17" fill="#1C1B25"/>
<rect width="174.55" height="17.055" transform="translate(8 8)" fill="#1C1B25"/>
<path d="M20.2161 20.6846L21.9207 18.4627L22.0401 18.4759C21.9738 18.5644 21.9008 18.6351 21.8212 18.6882C21.7416 18.7368 21.6532 18.7722 21.5559 18.7943C21.4631 18.8164 21.3614 18.8275 21.2508 18.8275C20.959 18.8275 20.6959 18.7611 20.4615 18.6285C20.2316 18.4914 20.0481 18.3057 19.9111 18.0714C19.7784 17.8326 19.7121 17.5607 19.7121 17.2556C19.7121 16.9505 19.7828 16.6785 19.9243 16.4398C20.0658 16.201 20.2604 16.0131 20.508 15.876C20.7556 15.7345 21.0342 15.6638 21.3437 15.6638C21.662 15.6638 21.9428 15.7345 22.186 15.876C22.4336 16.0131 22.6282 16.2054 22.7697 16.453C22.9112 16.6962 22.9819 16.977 22.9819 17.2954C22.9819 17.4678 22.962 17.638 22.9222 17.8061C22.8824 17.9741 22.8183 18.1443 22.7299 18.3168C22.6459 18.4892 22.5331 18.6683 22.3916 18.854L20.9988 20.6846H20.2161ZM21.3437 18.2571C21.5338 18.2571 21.7018 18.2151 21.8477 18.1311C21.9981 18.0426 22.1153 17.9232 22.1993 17.7729C22.2833 17.6181 22.3253 17.4457 22.3253 17.2556C22.3253 17.0566 22.2811 16.8819 22.1926 16.7316C22.1086 16.5813 21.9937 16.4619 21.8477 16.3734C21.7018 16.285 21.5338 16.2408 21.3437 16.2408C21.158 16.2408 20.9921 16.285 20.8462 16.3734C20.7003 16.4619 20.5831 16.5813 20.4947 16.7316C20.4107 16.8819 20.3687 17.0566 20.3687 17.2556C20.3687 17.4457 20.4107 17.6181 20.4947 17.7729C20.5787 17.9232 20.6937 18.0426 20.8396 18.1311C20.9899 18.2151 21.158 18.2571 21.3437 18.2571ZM24.0672 20.6846V19.8887H24.7105V20.6846H24.0672ZM24.0672 17.9056V17.1097H24.7105V17.9056H24.0672ZM27.3926 20.7642C27.1317 20.7642 26.8885 20.7177 26.663 20.6249C26.4375 20.532 26.243 20.4016 26.0794 20.2336C25.9158 20.0611 25.7942 19.8577 25.7146 19.6234L26.2651 19.3979C26.3579 19.6455 26.5039 19.8378 26.7028 19.9749C26.9018 20.112 27.1317 20.1805 27.3926 20.1805C27.596 20.1805 27.7773 20.1407 27.9365 20.0611C28.0957 19.9815 28.2195 19.8666 28.3079 19.7162C28.4008 19.5659 28.4472 19.3846 28.4472 19.1724C28.4472 18.9557 28.4008 18.7744 28.3079 18.6285C28.2195 18.4782 28.0957 18.3632 27.9365 18.2836C27.7773 18.204 27.5938 18.1642 27.386 18.1642C27.3197 18.1642 27.2467 18.1686 27.1671 18.1775C27.0919 18.1863 27.0278 18.1996 26.9748 18.2173L26.8355 17.9188L28.1554 16.3071H25.9666V15.7434H28.8916V16.2872L27.6314 17.8392L27.5916 17.6668C27.8878 17.6756 28.1487 17.7442 28.3742 17.8724C28.5997 18.0006 28.7766 18.1753 28.9048 18.3964C29.0331 18.613 29.0972 18.8673 29.0972 19.1591C29.0972 19.4598 29.0242 19.7317 28.8783 19.9749C28.7324 20.2181 28.5312 20.4104 28.2747 20.5519C28.0183 20.6934 27.7242 20.7642 27.3926 20.7642ZM31.8984 20.7642C31.5049 20.7642 31.16 20.658 30.8637 20.4458C30.5719 20.2291 30.3442 19.9307 30.1806 19.5504C30.017 19.1657 29.9352 18.7191 29.9352 18.2106C29.9352 17.7022 30.017 17.2578 30.1806 16.8775C30.3442 16.4928 30.5719 16.1944 30.8637 15.9821C31.1556 15.7699 31.4983 15.6638 31.8918 15.6638C32.2853 15.6638 32.628 15.7699 32.9198 15.9821C33.2117 16.1944 33.4394 16.4928 33.603 16.8775C33.771 17.2578 33.855 17.7022 33.855 18.2106C33.855 18.7191 33.7732 19.1657 33.6096 19.5504C33.446 19.9351 33.2161 20.2336 32.9198 20.4458C32.628 20.658 32.2875 20.7642 31.8984 20.7642ZM31.8984 20.1606C32.1637 20.1606 32.3936 20.081 32.5882 19.9218C32.7827 19.7582 32.9331 19.5305 33.0392 19.2387C33.1497 18.9469 33.205 18.6042 33.205 18.2106C33.205 17.8171 33.1497 17.4744 33.0392 17.1826C32.9331 16.8908 32.7805 16.6653 32.5816 16.5061C32.387 16.3469 32.1571 16.2673 31.8918 16.2673C31.6265 16.2673 31.3966 16.3469 31.202 16.5061C31.0074 16.6653 30.8549 16.8908 30.7444 17.1826C30.6382 17.4744 30.5852 17.8171 30.5852 18.2106C30.5852 18.5998 30.6382 18.9402 30.7444 19.2321C30.8549 19.5239 31.0074 19.7516 31.202 19.9152C31.401 20.0788 31.6331 20.1606 31.8984 20.1606ZM35.9872 20.6846V15.7434H37.7316C38.0588 15.7434 38.3462 15.8053 38.5938 15.9291C38.8414 16.0529 39.0338 16.2297 39.1708 16.4597C39.3123 16.6896 39.3831 16.9593 39.3831 17.2688C39.3831 17.5783 39.3123 17.8481 39.1708 18.078C39.0338 18.3035 38.8414 18.4804 38.5938 18.6086C38.3506 18.7324 38.0632 18.7943 37.7316 18.7943H36.6372V20.6846H35.9872ZM36.6372 18.1974H37.7515C37.9505 18.1974 38.1229 18.1598 38.2688 18.0846C38.4147 18.0095 38.5275 17.9011 38.6071 17.7596C38.6867 17.6181 38.7265 17.4545 38.7265 17.2688C38.7265 17.0787 38.6867 16.9151 38.6071 16.778C38.5275 16.6365 38.4147 16.5282 38.2688 16.453C38.1229 16.3779 37.9505 16.3403 37.7515 16.3403H36.6372V18.1974ZM40.2621 20.6846V15.7434H40.859L42.7095 18.3765H42.4044L44.2416 15.7434H44.8385V20.6846H44.1819V16.5658L44.414 16.6387L42.5768 19.2254H42.5238L40.7065 16.6387L40.9121 16.5658V20.6846H40.2621Z" fill="white"/>
<g clip-path="url(#clip0_46_3894)">
<path fill-rule="evenodd" clip-rule="evenodd" d="M119.65 15.0873C119.79 14.9471 119.79 14.7199 119.65 14.5797C119.51 14.4396 119.283 14.4396 119.143 14.5797L118.066 15.6564C117.926 15.7966 117.926 16.0238 118.066 16.164C118.206 16.3042 118.433 16.3042 118.574 16.164L119.65 15.0873ZM124.675 14.5797C124.535 14.4396 124.308 14.4396 124.167 14.5797C124.027 14.7199 124.027 14.9471 124.167 15.0873L125.244 16.164C125.384 16.3042 125.611 16.3042 125.752 16.164C125.892 16.0238 125.892 15.7966 125.752 15.6564L124.675 14.5797ZM121.909 15.9102C120.324 15.9102 119.038 17.1957 119.038 18.7814C119.038 20.3671 120.324 21.6526 121.909 21.6526C123.495 21.6526 124.781 20.3671 124.781 18.7814C124.781 17.1957 123.495 15.9102 121.909 15.9102ZM118.32 18.7814C118.32 16.7992 119.927 15.1924 121.909 15.1924C123.891 15.1924 125.498 16.7992 125.498 18.7814C125.498 20.7636 123.891 22.3704 121.909 22.3704C119.927 22.3704 118.32 20.7636 118.32 18.7814ZM121.914 16.6279C122.112 16.6279 122.272 16.7886 122.272 16.9868V18.5893L123.189 19.2005C123.354 19.3104 123.399 19.5333 123.289 19.6982C123.179 19.8631 122.956 19.9077 122.791 19.7978L121.874 19.1866C121.776 19.121 121.695 19.0321 121.64 18.9279C121.584 18.8238 121.555 18.7075 121.555 18.5893V16.9868C121.555 16.7886 121.715 16.6279 121.914 16.6279Z" fill="white"/>
</g>
<path fill-rule="evenodd" clip-rule="evenodd" d="M133.125 14.7748C133.245 14.7162 133.389 14.7288 133.496 14.8075L135.774 16.4768C135.864 16.5432 135.917 16.6478 135.915 16.7585C135.914 16.8691 135.858 16.9723 135.766 17.0363L133.762 18.423L135.766 19.8097C135.858 19.8737 135.914 19.9769 135.915 20.0875C135.917 20.1982 135.864 20.3028 135.774 20.3692L133.496 22.0385C133.389 22.1172 133.245 22.1298 133.125 22.0712C133.005 22.0125 132.929 21.8926 132.929 21.7615V18.9998L131.21 20.1893C131.051 20.2998 130.83 20.2629 130.717 20.1069C130.603 19.9509 130.641 19.7348 130.801 19.6243L132.536 18.423L130.801 17.2217C130.641 17.1112 130.603 16.8951 130.717 16.7391C130.83 16.5831 131.051 16.5462 131.21 16.6567L132.929 17.8462V15.0845C132.929 14.9534 133.005 14.8335 133.125 14.7748ZM133.638 19.1852L134.96 20.1002L133.638 21.0691V19.1852ZM133.638 17.6608V15.7769L134.96 16.7458L133.638 17.6608Z" fill="white"/>
<path fill-rule="evenodd" clip-rule="evenodd" d="M142.795 16.4388C143.368 16.2008 143.982 16.0787 144.602 16.0795L144.603 16.0795C145.908 16.0795 147.088 16.6093 147.941 17.4664C148.105 17.6312 148.372 17.6318 148.537 17.4677C148.702 17.3036 148.702 17.037 148.538 16.8721C147.533 15.8628 146.141 15.2374 144.603 15.2373L144.603 15.2373L144.603 15.6584V15.2373L144.603 15.2373C143.872 15.2364 143.147 15.3804 142.472 15.661C141.796 15.9417 141.183 16.3535 140.667 16.8725C140.503 17.0375 140.504 17.3042 140.669 17.4681C140.834 17.632 141.101 17.6311 141.265 17.466C141.702 17.0259 142.222 16.6768 142.795 16.4388ZM143.373 17.9094C143.761 17.7435 144.18 17.6582 144.602 17.6587H144.603C145.026 17.6582 145.444 17.7435 145.833 17.9094C146.222 18.0753 146.573 18.3184 146.865 18.624C147.025 18.7922 147.292 18.7983 147.46 18.6376C147.628 18.477 147.634 18.2104 147.473 18.0422C147.103 17.6542 146.657 17.3455 146.164 17.1348C145.67 16.9242 145.139 16.8159 144.603 16.8165L144.603 16.8165L144.603 17.2376L144.602 16.8165L144.603 16.8165C144.066 16.8159 143.535 16.9242 143.042 17.1348C142.549 17.3455 142.103 17.6542 141.732 18.0422C141.572 18.2104 141.578 18.477 141.746 18.6376C141.914 18.7983 142.181 18.7922 142.341 18.624C142.633 18.3184 142.984 18.0753 143.373 17.9094ZM143.962 19.3759C144.163 19.2847 144.381 19.2376 144.602 19.2379L144.603 19.2379C145.068 19.2379 145.486 19.4423 145.771 19.7672C145.924 19.942 146.19 19.9594 146.365 19.806C146.54 19.6526 146.557 19.3866 146.404 19.2117C145.966 18.7124 145.321 18.3957 144.603 18.3956L144.603 18.3956L144.603 18.8168V18.3956H144.603C144.262 18.3953 143.925 18.468 143.614 18.6088C143.303 18.7496 143.026 18.9554 142.801 19.2122C142.648 19.3873 142.666 19.6533 142.841 19.8064C143.016 19.9596 143.282 19.9418 143.435 19.7667C143.581 19.6004 143.76 19.4671 143.962 19.3759ZM145.176 20.6328C145.176 20.9236 144.94 21.1592 144.649 21.1592C144.359 21.1592 144.123 20.9236 144.123 20.6328C144.123 20.3421 144.359 20.1064 144.649 20.1064C144.94 20.1064 145.176 20.3421 145.176 20.6328Z" fill="white"/>
<path fill-rule="evenodd" clip-rule="evenodd" d="M158.338 15.7892C158.338 15.5275 158.147 15.3154 157.911 15.3154C157.676 15.3154 157.485 15.5275 157.485 15.7892V21.0531C157.485 21.3147 157.676 21.5268 157.911 21.5268C158.147 21.5268 158.338 21.3147 158.338 21.0531V15.7892ZM155.166 18.5782C155.166 18.3166 154.975 18.1045 154.739 18.1045C154.504 18.1045 154.313 18.3166 154.313 18.5782V21.0523C154.313 21.3139 154.504 21.526 154.739 21.526C154.975 21.526 155.166 21.3139 155.166 21.0523V18.5782ZM153.177 19.5264C153.412 19.5264 153.603 19.7385 153.603 20.0001V21.0529C153.603 21.3145 153.412 21.5266 153.177 21.5266C152.941 21.5266 152.75 21.3145 152.75 21.0529V20.0001C152.75 19.7385 152.941 19.5264 153.177 19.5264ZM156.775 17.2101C156.775 16.9484 156.584 16.7363 156.349 16.7363C156.113 16.7363 155.922 16.9484 155.922 17.2101V21.0527C155.922 21.3144 156.113 21.5265 156.349 21.5265C156.584 21.5265 156.775 21.3144 156.775 21.0527V17.2101Z" fill="white"/>
<path fill-rule="evenodd" clip-rule="evenodd" d="M162.848 16.0051C163.07 15.783 163.372 15.6582 163.686 15.6582H168.423C168.737 15.6582 169.039 15.783 169.261 16.0051C169.483 16.2272 169.608 16.5285 169.608 16.8426V16.9103C169.773 16.9686 169.924 17.0634 170.05 17.1895C170.273 17.4116 170.397 17.7128 170.397 18.027V18.8165C170.397 19.1307 170.273 19.4319 170.05 19.654C169.924 19.7801 169.773 19.8748 169.608 19.9332V20.0009C169.608 20.315 169.483 20.6163 169.261 20.8384C169.039 21.0605 168.737 21.1853 168.423 21.1853H163.686C163.372 21.1853 163.07 21.0605 162.848 20.8384C162.626 20.6163 162.501 20.315 162.501 20.0009V16.8426C162.501 16.5285 162.626 16.2272 162.848 16.0051ZM163.686 16.4478C163.581 16.4478 163.481 16.4894 163.407 16.5634C163.333 16.6375 163.291 16.7379 163.291 16.8426V20.0009C163.291 20.1056 163.333 20.206 163.407 20.2801C163.481 20.3541 163.581 20.3957 163.686 20.3957H168.423C168.528 20.3957 168.628 20.3541 168.702 20.2801C168.777 20.206 168.818 20.1056 168.818 20.0009V19.6061C168.818 19.3881 168.995 19.2113 169.213 19.2113C169.318 19.2113 169.418 19.1697 169.492 19.0957C169.566 19.0217 169.608 18.9212 169.608 18.8165V18.027C169.608 17.9222 169.566 17.8218 169.492 17.7478C169.418 17.6738 169.318 17.6322 169.213 17.6322C168.995 17.6322 168.818 17.4554 168.818 17.2374V16.8426C168.818 16.7379 168.777 16.6375 168.702 16.5634C168.628 16.4894 168.528 16.4478 168.423 16.4478H163.686ZM164.475 17.2374C164.693 17.2374 164.87 17.4141 164.87 17.6322V19.2113C164.87 19.4294 164.693 19.6061 164.475 19.6061C164.257 19.6061 164.081 19.4294 164.081 19.2113V17.6322C164.081 17.4141 164.257 17.2374 164.475 17.2374ZM166.055 17.2374C166.273 17.2374 166.449 17.4141 166.449 17.6322V19.2113C166.449 19.4294 166.273 19.6061 166.055 19.6061C165.837 19.6061 165.66 19.4294 165.66 19.2113V17.6322C165.66 17.4141 165.837 17.2374 166.055 17.2374ZM167.634 17.2374C167.852 17.2374 168.029 17.4141 168.029 17.6322V19.2113C168.029 19.4294 167.852 19.6061 167.634 19.6061C167.416 19.6061 167.239 19.4294 167.239 19.2113V17.6322C167.239 17.4141 167.416 17.2374 167.634 17.2374Z" fill="white"/>
<mask id="path-9-inside-1_46_3894" fill="white">
<path d="M8 25.0547H182.55V55.3747H8V25.0547Z"/>
</mask>
<path d="M8 25.0547H182.55V55.3747H8V25.0547Z" fill="#1C1B25"/>
<path d="M182.55 54.9009H8V55.8484H182.55V54.9009Z" fill="#181A1B" mask="url(#path-9-inside-1_46_3894)"/>
<path d="M22.0042 43.4471C21.9142 43.4471 21.8242 43.4139 21.7531 43.3429L18.8775 40.4672C18.7401 40.3298 18.7401 40.1024 18.8775 39.965L21.7531 37.0894C21.8905 36.952 22.1179 36.952 22.2553 37.0894C22.3927 37.2268 22.3927 37.4542 22.2553 37.5915L19.6307 40.2161L22.2553 42.8407C22.3927 42.9781 22.3927 43.2055 22.2553 43.3429C22.189 43.4139 22.0942 43.4471 22.0042 43.4471Z" fill="#0C1931"/>
<path d="M27.1811 40.572H19.2079C19.0136 40.572 18.8525 40.4109 18.8525 40.2166C18.8525 40.0224 19.0136 39.8613 19.2079 39.8613H27.1811C27.3753 39.8613 27.5364 40.0224 27.5364 40.2166C27.5364 40.4109 27.3753 40.572 27.1811 40.572Z" fill="#0C1931"/>
<path d="M39.6274 43.3284C39.1852 43.3284 38.7746 43.2463 38.3956 43.0821C38.0166 42.9115 37.6945 42.681 37.4292 42.3904C37.1639 42.0998 36.968 41.765 36.8417 41.386L37.7892 40.9881C37.9598 41.4239 38.2093 41.7587 38.5377 41.9924C38.8662 42.2262 39.2452 42.343 39.6747 42.343C39.9274 42.343 40.1485 42.3051 40.338 42.2293C40.5275 42.1472 40.6728 42.0335 40.7738 41.8882C40.8812 41.7429 40.9349 41.5755 40.9349 41.386C40.9349 41.1271 40.8623 40.9218 40.717 40.7702C40.5717 40.6186 40.3569 40.4986 40.0727 40.4101L38.7462 39.9932C38.2156 39.829 37.8113 39.5795 37.5334 39.2447C37.2554 38.9036 37.1165 38.5056 37.1165 38.0508C37.1165 37.6529 37.2144 37.3055 37.4102 37.0086C37.606 36.7054 37.8745 36.4685 38.2156 36.298C38.563 36.1274 38.9578 36.0421 39.4 36.0421C39.8232 36.0421 40.2085 36.1179 40.5559 36.2695C40.9033 36.4148 41.2002 36.617 41.4466 36.8759C41.6992 37.1349 41.8824 37.435 41.9961 37.7761L41.0676 38.1835C40.9286 37.8108 40.7107 37.5234 40.4138 37.3213C40.1232 37.1191 39.7853 37.0181 39.4 37.0181C39.1662 37.0181 38.9609 37.0591 38.7841 37.1412C38.6072 37.217 38.4682 37.3307 38.3672 37.4823C38.2724 37.6276 38.2251 37.7982 38.2251 37.994C38.2251 38.2214 38.2977 38.4235 38.443 38.6004C38.5883 38.7773 38.8093 38.9099 39.1062 38.9983L40.338 39.3868C40.9002 39.5574 41.3234 39.8037 41.6076 40.1259C41.8919 40.4417 42.034 40.8365 42.034 41.3102C42.034 41.7019 41.9298 42.0493 41.7213 42.3525C41.5192 42.6557 41.2381 42.8957 40.8781 43.0726C40.518 43.2431 40.1011 43.3284 39.6274 43.3284ZM45.2125 43.2716C44.6756 43.2716 44.2587 43.12 43.9618 42.8168C43.6649 42.5136 43.5165 42.0872 43.5165 41.5376V39.0552H42.6163V38.0887H42.7585C42.9985 38.0887 43.1848 38.0193 43.3175 37.8803C43.4501 37.7413 43.5165 37.5518 43.5165 37.3118V36.9138H44.5871V38.0887H45.7526V39.0552H44.5871V41.4903C44.5871 41.6671 44.6156 41.8187 44.6724 41.9451C44.7293 42.0651 44.8209 42.1598 44.9472 42.2293C45.0735 42.2925 45.2378 42.3241 45.4399 42.3241C45.4904 42.3241 45.5473 42.3209 45.6104 42.3146C45.6736 42.3083 45.7336 42.302 45.7905 42.2956V43.2147C45.702 43.2274 45.6041 43.24 45.4967 43.2526C45.3894 43.2653 45.2946 43.2716 45.2125 43.2716ZM48.1345 43.3284C47.7871 43.3284 47.4807 43.2684 47.2154 43.1484C46.9564 43.0221 46.7543 42.8515 46.609 42.6367C46.4637 42.4157 46.3911 42.1567 46.3911 41.8598C46.3911 41.5819 46.4511 41.3324 46.5711 41.1113C46.6975 40.8902 46.8901 40.7038 47.1491 40.5522C47.4081 40.4006 47.7334 40.2933 48.125 40.2301L49.9063 39.9364V40.7796L48.3335 41.0544C48.0492 41.105 47.8408 41.1965 47.7081 41.3292C47.5755 41.4555 47.5091 41.6198 47.5091 41.8219C47.5091 42.0177 47.5818 42.1788 47.7271 42.3051C47.8787 42.4251 48.0713 42.4851 48.305 42.4851C48.5956 42.4851 48.8483 42.422 49.063 42.2956C49.2841 42.1693 49.4547 42.0019 49.5747 41.7935C49.6947 41.5787 49.7547 41.3418 49.7547 41.0828V39.7658C49.7547 39.5132 49.66 39.3079 49.4705 39.1499C49.2873 38.9857 49.0409 38.9036 48.7314 38.9036C48.4472 38.9036 48.1977 38.9794 47.9829 39.131C47.7744 39.2763 47.6197 39.4658 47.5186 39.6995L46.628 39.2542C46.7227 39.0015 46.8775 38.7804 47.0922 38.5909C47.307 38.3951 47.5565 38.2435 47.8408 38.1361C48.1313 38.0287 48.4377 37.975 48.7598 37.975C49.1641 37.975 49.521 38.0508 49.8305 38.2024C50.1464 38.354 50.3895 38.5657 50.5601 38.8373C50.737 39.1026 50.8254 39.4121 50.8254 39.7658V43.2147H49.8021V42.2862L50.02 42.3146C49.9 42.523 49.7452 42.7031 49.5557 42.8547C49.3726 43.0063 49.161 43.1231 48.9209 43.2052C48.6872 43.2874 48.4251 43.3284 48.1345 43.3284ZM54.0124 43.2716C53.4755 43.2716 53.0586 43.12 52.7617 42.8168C52.4648 42.5136 52.3164 42.0872 52.3164 41.5376V39.0552H51.4163V38.0887H51.5584C51.7984 38.0887 51.9848 38.0193 52.1174 37.8803C52.2501 37.7413 52.3164 37.5518 52.3164 37.3118V36.9138H53.3871V38.0887H54.5525V39.0552H53.3871V41.4903C53.3871 41.6671 53.4155 41.8187 53.4723 41.9451C53.5292 42.0651 53.6208 42.1598 53.7471 42.2293C53.8734 42.2925 54.0377 42.3241 54.2398 42.3241C54.2903 42.3241 54.3472 42.3209 54.4104 42.3146C54.4735 42.3083 54.5335 42.302 54.5904 42.2956V43.2147C54.5019 43.2274 54.404 43.24 54.2967 43.2526C54.1893 43.2653 54.0945 43.2716 54.0124 43.2716ZM55.4457 43.2147V38.0887H56.5164V43.2147H55.4457ZM55.4457 37.3876V36.1558H56.5164V37.3876H55.4457ZM59.4737 43.3284C58.9494 43.3284 58.4883 43.1989 58.0904 42.9399C57.6987 42.681 57.4239 42.3335 57.266 41.8977L58.0904 41.5092C58.2293 41.7998 58.4188 42.0303 58.6589 42.2009C58.9052 42.3714 59.1768 42.4567 59.4737 42.4567C59.7264 42.4567 59.9317 42.3999 60.0896 42.2862C60.2475 42.1725 60.3265 42.0177 60.3265 41.8219C60.3265 41.6956 60.2917 41.5945 60.2222 41.5187C60.1527 41.4366 60.0643 41.3703 59.9569 41.3197C59.8559 41.2692 59.7516 41.2313 59.6443 41.206L58.8389 40.9786C58.3967 40.8523 58.0651 40.6628 57.844 40.4101C57.6292 40.1511 57.5219 39.8511 57.5219 39.51C57.5219 39.2005 57.6008 38.932 57.7587 38.7046C57.9166 38.4709 58.1346 38.2909 58.4125 38.1645C58.6904 38.0382 59.0031 37.975 59.3505 37.975C59.818 37.975 60.2349 38.0919 60.6012 38.3256C60.9676 38.553 61.2266 38.872 61.3782 39.2826L60.5539 39.6711C60.4528 39.4247 60.2917 39.2289 60.0706 39.0836C59.8559 38.9383 59.6127 38.8657 59.3411 38.8657C59.1073 38.8657 58.921 38.9225 58.782 39.0362C58.6431 39.1436 58.5736 39.2858 58.5736 39.4626C58.5736 39.5826 58.6052 39.6837 58.6683 39.7658C58.7315 39.8416 58.8136 39.9048 58.9147 39.9553C59.0157 39.9995 59.12 40.0374 59.2274 40.069L60.0612 40.3154C60.4844 40.4354 60.8097 40.6249 61.0371 40.8839C61.2645 41.1365 61.3782 41.4397 61.3782 41.7935C61.3782 42.0967 61.2961 42.3651 61.1318 42.5988C60.9739 42.8262 60.7528 43.0063 60.4686 43.1389C60.1843 43.2653 59.8527 43.3284 59.4737 43.3284ZM64.4549 43.2716C63.918 43.2716 63.5011 43.12 63.2042 42.8168C62.9073 42.5136 62.7589 42.0872 62.7589 41.5376V39.0552H61.8587V38.0887H62.0009C62.2409 38.0887 62.4272 38.0193 62.5599 37.8803C62.6925 37.7413 62.7589 37.5518 62.7589 37.3118V36.9138H63.8295V38.0887H64.995V39.0552H63.8295V41.4903C63.8295 41.6671 63.858 41.8187 63.9148 41.9451C63.9717 42.0651 64.0633 42.1598 64.1896 42.2293C64.3159 42.2925 64.4802 42.3241 64.6823 42.3241C64.7328 42.3241 64.7897 42.3209 64.8528 42.3146C64.916 42.3083 64.976 42.302 65.0329 42.2956V43.2147C64.9444 43.2274 64.8465 43.24 64.7391 43.2526C64.6318 43.2653 64.537 43.2716 64.4549 43.2716ZM65.8882 43.2147V38.0887H66.9589V43.2147H65.8882ZM65.8882 37.3876V36.1558H66.9589V37.3876H65.8882ZM70.4563 43.3284C69.9446 43.3284 69.4898 43.2116 69.0919 42.9778C68.7002 42.7378 68.3876 42.4157 68.1538 42.0114C67.9264 41.6071 67.8127 41.1492 67.8127 40.6375C67.8127 40.1322 67.9264 39.6774 68.1538 39.2731C68.3812 38.8689 68.6939 38.553 69.0919 38.3256C69.4898 38.0919 69.9446 37.975 70.4563 37.975C70.8037 37.975 71.129 38.0382 71.4322 38.1645C71.7354 38.2846 71.9975 38.452 72.2186 38.6667C72.446 38.8815 72.6134 39.131 72.7208 39.4152L71.7828 39.8511C71.6754 39.5858 71.5017 39.3742 71.2616 39.2163C71.0279 39.052 70.7595 38.9699 70.4563 38.9699C70.1657 38.9699 69.9036 39.0426 69.6698 39.1878C69.4424 39.3268 69.2624 39.5258 69.1298 39.7848C68.9971 40.0374 68.9308 40.3248 68.9308 40.647C68.9308 40.9691 68.9971 41.2597 69.1298 41.5187C69.2624 41.7714 69.4424 41.9703 69.6698 42.1156C69.9036 42.2609 70.1657 42.3335 70.4563 42.3335C70.7658 42.3335 71.0342 42.2546 71.2616 42.0967C71.4954 41.9324 71.6691 41.7145 71.7828 41.4429L72.7208 41.8882C72.6197 42.1598 72.4555 42.4062 72.2281 42.6273C72.007 42.842 71.7449 43.0126 71.4417 43.1389C71.1385 43.2653 70.81 43.3284 70.4563 43.3284ZM75.4728 43.3284C74.9485 43.3284 74.4874 43.1989 74.0894 42.9399C73.6978 42.681 73.423 42.3335 73.2651 41.8977L74.0894 41.5092C74.2284 41.7998 74.4179 42.0303 74.6579 42.2009C74.9043 42.3714 75.1759 42.4567 75.4728 42.4567C75.7254 42.4567 75.9307 42.3999 76.0886 42.2862C76.2465 42.1725 76.3255 42.0177 76.3255 41.8219C76.3255 41.6956 76.2908 41.5945 76.2213 41.5187C76.1518 41.4366 76.0634 41.3703 75.956 41.3197C75.8549 41.2692 75.7507 41.2313 75.6433 41.206L74.8379 40.9786C74.3958 40.8523 74.0641 40.6628 73.8431 40.4101C73.6283 40.1511 73.5209 39.8511 73.5209 39.51C73.5209 39.2005 73.5999 38.932 73.7578 38.7046C73.9157 38.4709 74.1336 38.2909 74.4116 38.1645C74.6895 38.0382 75.0022 37.975 75.3496 37.975C75.817 37.975 76.2339 38.0919 76.6003 38.3256C76.9666 38.553 77.2256 38.872 77.3772 39.2826L76.5529 39.6711C76.4518 39.4247 76.2908 39.2289 76.0697 39.0836C75.8549 38.9383 75.6117 38.8657 75.3401 38.8657C75.1064 38.8657 74.92 38.9225 74.7811 39.0362C74.6421 39.1436 74.5726 39.2858 74.5726 39.4626C74.5726 39.5826 74.6042 39.6837 74.6674 39.7658C74.7305 39.8416 74.8127 39.9048 74.9137 39.9553C75.0148 39.9995 75.119 40.0374 75.2264 40.069L76.0602 40.3154C76.4834 40.4354 76.8087 40.6249 77.0361 40.8839C77.2635 41.1365 77.3772 41.4397 77.3772 41.7935C77.3772 42.0967 77.2951 42.3651 77.1309 42.5988C76.973 42.8262 76.7519 43.0063 76.4676 43.1389C76.1834 43.2653 75.8518 43.3284 75.4728 43.3284Z" fill="white"/>
<rect x="17.4766" y="61.0596" width="155.6" height="18.95" rx="4.7375" fill="#131416"/>
<path d="M28.3879 72.5345L27.1997 68.2992H27.7853L28.7802 72.0286H28.6437L29.6784 68.2992H30.264L31.2929 72.0286H31.1508L32.1514 68.2992H32.7369L31.5488 72.5345H30.9291L29.8944 68.8222H30.0422L29.0076 72.5345H28.3879ZM34.4082 72.6028C34.1126 72.6028 33.8492 72.5327 33.618 72.3924C33.3868 72.2522 33.2049 72.0608 33.0723 71.8182C32.9396 71.5719 32.8733 71.2971 32.8733 70.9939C32.8733 70.6869 32.9377 70.414 33.0666 70.1753C33.1992 69.9365 33.3774 69.7489 33.601 69.6125C33.8284 69.4722 34.0823 69.4021 34.3628 69.4021C34.5902 69.4021 34.791 69.4438 34.9654 69.5272C35.1435 69.6068 35.2932 69.7167 35.4145 69.8569C35.5395 69.9934 35.6343 70.1506 35.6987 70.3288C35.7669 70.5031 35.8011 70.685 35.8011 70.8745C35.8011 70.9162 35.7973 70.9636 35.7897 71.0167C35.7859 71.0659 35.7802 71.1133 35.7726 71.1588H33.2599V70.704H35.4656L35.2155 70.9086C35.2496 70.7116 35.2307 70.5353 35.1587 70.3799C35.0866 70.2245 34.9805 70.1014 34.8403 70.0104C34.7001 69.9194 34.5409 69.874 34.3628 69.874C34.1846 69.874 34.0217 69.9194 33.8738 70.0104C33.726 70.1014 33.6104 70.2321 33.5271 70.4027C33.4475 70.5694 33.4153 70.7684 33.4304 70.9996C33.4153 71.2232 33.4494 71.4203 33.5327 71.5908C33.6199 71.7576 33.7412 71.8884 33.8966 71.9831C34.0558 72.0741 34.2282 72.1195 34.4139 72.1195C34.6186 72.1195 34.791 72.0722 34.9313 71.9774C35.0715 71.8827 35.1852 71.7614 35.2724 71.6136L35.7158 71.841C35.6551 71.9812 35.5604 72.1101 35.4315 72.2276C35.3065 72.3413 35.1568 72.4322 34.9824 72.5004C34.8119 72.5687 34.6205 72.6028 34.4082 72.6028ZM37.9003 72.6028C37.6047 72.6028 37.3413 72.5327 37.1101 72.3924C36.8789 72.2522 36.697 72.0608 36.5643 71.8182C36.4317 71.5719 36.3653 71.2971 36.3653 70.9939C36.3653 70.6869 36.4298 70.414 36.5586 70.1753C36.6913 69.9365 36.8694 69.7489 37.093 69.6125C37.3204 69.4722 37.5743 69.4021 37.8548 69.4021C38.0822 69.4021 38.2831 69.4438 38.4574 69.5272C38.6355 69.6068 38.7853 69.7167 38.9065 69.8569C39.0316 69.9934 39.1264 70.1506 39.1908 70.3288C39.259 70.5031 39.2931 70.685 39.2931 70.8745C39.2931 70.9162 39.2893 70.9636 39.2817 71.0167C39.278 71.0659 39.2723 71.1133 39.2647 71.1588H36.7519V70.704H38.9577L38.7076 70.9086C38.7417 70.7116 38.7227 70.5353 38.6507 70.3799C38.5787 70.2245 38.4726 70.1014 38.3323 70.0104C38.1921 69.9194 38.0329 69.874 37.8548 69.874C37.6767 69.874 37.5137 69.9194 37.3659 70.0104C37.2181 70.1014 37.1025 70.2321 37.0191 70.4027C36.9395 70.5694 36.9073 70.7684 36.9225 70.9996C36.9073 71.2232 36.9414 71.4203 37.0248 71.5908C37.112 71.7576 37.2332 71.8884 37.3886 71.9831C37.5478 72.0741 37.7203 72.1195 37.906 72.1195C38.1106 72.1195 38.2831 72.0722 38.4233 71.9774C38.5635 71.8827 38.6772 71.7614 38.7644 71.6136L39.2078 71.841C39.1472 71.9812 39.0524 72.1101 38.9236 72.2276C38.7985 72.3413 38.6488 72.4322 38.4745 72.5004C38.3039 72.5687 38.1125 72.6028 37.9003 72.6028ZM39.9825 72.5345V68.231H40.5112V71.1815L40.2951 71.1304L41.921 69.4703H42.5976L41.4208 70.704L42.6772 72.5345H42.0518L40.9034 70.8745L41.2332 70.8575L40.3406 71.7898L40.5112 71.4032V72.5345H39.9825ZM43.1525 72.5345V68.231H43.6812V72.5345H43.1525ZM44.6665 73.7852C44.5982 73.7852 44.53 73.7796 44.4618 73.7682C44.3936 73.7606 44.3291 73.7436 44.2685 73.717V73.2452C44.3102 73.249 44.3614 73.2565 44.422 73.2679C44.4864 73.2793 44.549 73.285 44.6096 73.285C44.7877 73.285 44.9223 73.2452 45.0132 73.1656C45.108 73.086 45.1971 72.9514 45.2804 72.7619L45.4737 72.3015L45.4624 72.7619L44.1548 69.4703H44.729L45.7466 72.0854H45.5761L46.588 69.4703H47.1735L45.7921 72.8984C45.7277 73.0614 45.6443 73.2111 45.5419 73.3475C45.4434 73.4839 45.3221 73.5901 45.1781 73.6659C45.0341 73.7455 44.8635 73.7852 44.6665 73.7852Z" fill="#0C1931"/>
<rect x="57.7979" y="62.9546" width="36.5312" height="15.16" rx="4.7375" fill="#0E0F10"/>
<path d="M65.5353 72.5345V68.2992H66.047L67.6331 70.5562H67.3716L68.9463 68.2992H69.458V72.5345H68.8952V69.0042L69.0941 69.0667L67.5194 71.2838H67.4739L65.9162 69.0667L66.0925 69.0042V72.5345H65.5353ZM71.7915 72.6028C71.4959 72.6028 71.2287 72.5345 70.9899 72.3981C70.7511 72.2579 70.5616 72.0665 70.4214 71.8239C70.2812 71.5814 70.2111 71.3066 70.2111 70.9996C70.2111 70.6926 70.2793 70.4197 70.4157 70.181C70.556 69.9422 70.7455 69.7527 70.9842 69.6125C71.223 69.4722 71.4921 69.4021 71.7915 69.4021C72.0871 69.4021 72.3543 69.4722 72.5931 69.6125C72.8319 69.7489 73.0195 69.9365 73.1559 70.1753C73.2961 70.414 73.3662 70.6888 73.3662 70.9996C73.3662 71.3104 73.2942 71.587 73.1502 71.8296C73.0062 72.0684 72.8148 72.2579 72.576 72.3981C72.341 72.5345 72.0795 72.6028 71.7915 72.6028ZM71.7915 72.0911C71.981 72.0911 72.1515 72.0437 72.3031 71.949C72.4585 71.8542 72.5798 71.7235 72.667 71.5567C72.7579 71.39 72.8034 71.2043 72.8034 70.9996C72.8034 70.7911 72.7579 70.6073 72.667 70.4482C72.5798 70.2852 72.4585 70.1563 72.3031 70.0616C72.1515 69.963 71.981 69.9138 71.7915 69.9138C71.5982 69.9138 71.4239 69.963 71.2685 70.0616C71.1169 70.1563 70.9956 70.2852 70.9046 70.4482C70.8137 70.6073 70.7682 70.7911 70.7682 70.9996C70.7682 71.2043 70.8137 71.39 70.9046 71.5567C70.9956 71.7235 71.1169 71.8542 71.2685 71.949C71.4239 72.0437 71.5982 72.0911 71.7915 72.0911ZM74.0558 72.5345V69.4703H74.5731V70.0673L74.4879 70.0161C74.5637 69.8228 74.685 69.6731 74.8517 69.567C75.0223 69.4571 75.2212 69.4021 75.4486 69.4021C75.6685 69.4021 75.8636 69.4514 76.0342 69.5499C76.2085 69.6485 76.345 69.7849 76.4435 69.9592C76.5458 70.1336 76.597 70.3307 76.597 70.5505V72.5345H76.0626V70.721C76.0626 70.5505 76.0323 70.4065 75.9717 70.289C75.911 70.1715 75.8238 70.0805 75.7101 70.0161C75.6002 69.9479 75.4733 69.9138 75.3293 69.9138C75.1852 69.9138 75.0564 69.9479 74.9427 70.0161C74.8328 70.0805 74.7456 70.1734 74.6812 70.2947C74.6167 70.4121 74.5845 70.5543 74.5845 70.721V72.5345H74.0558ZM78.5986 72.5687C78.2992 72.5687 78.068 72.4834 77.905 72.3128C77.7458 72.1423 77.6662 71.9016 77.6662 71.5908V69.9763H77.1091V69.4703H77.2228C77.3592 69.4703 77.4673 69.4286 77.5468 69.3453C77.6264 69.2619 77.6662 69.152 77.6662 69.0155V68.7654H78.1949V69.4703H78.8828V69.9763H78.1949V71.5738C78.1949 71.6761 78.2101 71.7652 78.2404 71.841C78.2745 71.9168 78.3295 71.9774 78.4053 72.0229C78.4811 72.0646 78.5815 72.0854 78.7066 72.0854C78.7331 72.0854 78.7653 72.0835 78.8032 72.0797C78.8449 72.076 78.8828 72.0722 78.9169 72.0684V72.5345C78.8677 72.5459 78.8127 72.5535 78.7521 72.5573C78.6914 72.5649 78.6403 72.5687 78.5986 72.5687ZM79.6076 72.5345V68.231H80.1363V70.0673L80.0396 70.0161C80.1154 69.8228 80.2367 69.6731 80.4035 69.567C80.574 69.4571 80.773 69.4021 81.0004 69.4021C81.2202 69.4021 81.4154 69.4514 81.586 69.5499C81.7603 69.6485 81.8967 69.7849 81.9953 69.9592C82.0976 70.1336 82.1488 70.3307 82.1488 70.5505V72.5345H81.6144V70.721C81.6144 70.5505 81.5822 70.4065 81.5177 70.289C81.4571 70.1715 81.3718 70.0805 81.2619 70.0161C81.152 69.9479 81.025 69.9138 80.881 69.9138C80.7408 69.9138 80.6138 69.9479 80.5001 70.0161C80.3864 70.0805 80.2974 70.1734 80.2329 70.2947C80.1685 70.4121 80.1363 70.5543 80.1363 70.721V72.5345H79.6076ZM82.9053 72.5345V68.231H83.434V72.5345H82.9053ZM84.4193 73.7852C84.351 73.7852 84.2828 73.7796 84.2146 73.7682C84.1464 73.7606 84.0819 73.7436 84.0213 73.717V73.2452C84.063 73.249 84.1142 73.2565 84.1748 73.2679C84.2392 73.2793 84.3018 73.285 84.3624 73.285C84.5405 73.285 84.6751 73.2452 84.766 73.1656C84.8608 73.086 84.9499 72.9514 85.0332 72.7619L85.2265 72.3015L85.2152 72.7619L83.9076 69.4703H84.4818L85.4994 72.0854H85.3289L86.3408 69.4703H86.9263L85.5449 72.8984C85.4805 73.0614 85.3971 73.2111 85.2947 73.3475C85.1962 73.4839 85.0749 73.5901 84.9309 73.6659C84.7869 73.7455 84.6163 73.7852 84.4193 73.7852Z" fill="white"/>
<path d="M107.519 72.5345V70.596L106.052 68.2992H106.683L107.911 70.2264H107.684L108.906 68.2992H109.537L108.082 70.596V72.5345H107.519ZM110.868 72.6028C110.572 72.6028 110.309 72.5327 110.078 72.3924C109.847 72.2522 109.665 72.0608 109.532 71.8182C109.399 71.5719 109.333 71.2971 109.333 70.9939C109.333 70.6869 109.397 70.414 109.526 70.1753C109.659 69.9365 109.837 69.7489 110.061 69.6125C110.288 69.4722 110.542 69.4021 110.822 69.4021C111.05 69.4021 111.251 69.4438 111.425 69.5272C111.603 69.6068 111.753 69.7167 111.874 69.8569C111.999 69.9934 112.094 70.1506 112.158 70.3288C112.227 70.5031 112.261 70.685 112.261 70.8745C112.261 70.9162 112.257 70.9636 112.249 71.0167C112.246 71.0659 112.24 71.1133 112.232 71.1588H109.72V70.704H111.925L111.675 70.9086C111.709 70.7116 111.69 70.5353 111.618 70.3799C111.546 70.2245 111.44 70.1014 111.3 70.0104C111.16 69.9194 111.001 69.874 110.822 69.874C110.644 69.874 110.481 69.9194 110.334 70.0104C110.186 70.1014 110.07 70.2321 109.987 70.4027C109.907 70.5694 109.875 70.7684 109.89 70.9996C109.875 71.2232 109.909 71.4203 109.992 71.5908C110.08 71.7576 110.201 71.8884 110.356 71.9831C110.515 72.0741 110.688 72.1195 110.874 72.1195C111.078 72.1195 111.251 72.0722 111.391 71.9774C111.531 71.8827 111.645 71.7614 111.732 71.6136L112.176 71.841C112.115 71.9812 112.02 72.1101 111.891 72.2276C111.766 72.3413 111.616 72.4322 111.442 72.5004C111.272 72.5687 111.08 72.6028 110.868 72.6028ZM113.81 72.6028C113.609 72.6028 113.431 72.5668 113.275 72.4948C113.124 72.419 113.004 72.3166 112.917 72.1878C112.83 72.0551 112.786 71.9035 112.786 71.733C112.786 71.57 112.82 71.4241 112.889 71.2952C112.961 71.1626 113.07 71.0508 113.218 70.9598C113.37 70.8688 113.559 70.8044 113.787 70.7665L114.924 70.5789V71.0223L113.906 71.1929C113.709 71.227 113.565 71.2895 113.474 71.3805C113.387 71.4715 113.343 71.5833 113.343 71.7159C113.343 71.841 113.393 71.9452 113.491 72.0286C113.593 72.112 113.72 72.1537 113.872 72.1537C114.065 72.1537 114.232 72.1139 114.372 72.0343C114.516 71.9509 114.628 71.8391 114.708 71.6989C114.791 71.5586 114.833 71.4032 114.833 71.2327V70.4538C114.833 70.2871 114.77 70.1525 114.645 70.0502C114.524 69.9441 114.363 69.891 114.162 69.891C113.988 69.891 113.832 69.9365 113.696 70.0275C113.563 70.1146 113.465 70.2321 113.4 70.3799L112.94 70.1412C112.997 70.0009 113.088 69.8759 113.213 69.766C113.338 69.6523 113.484 69.5632 113.65 69.4988C113.817 69.4343 113.991 69.4021 114.173 69.4021C114.408 69.4021 114.615 69.4476 114.793 69.5386C114.971 69.6257 115.109 69.7489 115.208 69.9081C115.31 70.0635 115.362 70.2454 115.362 70.4538V72.5345H114.844V71.9547L114.941 71.9888C114.876 72.1101 114.789 72.2162 114.679 72.3071C114.569 72.3981 114.441 72.4701 114.293 72.5232C114.145 72.5762 113.984 72.6028 113.81 72.6028ZM116.181 72.5345V69.4703H116.699V70.0331L116.642 69.9536C116.714 69.7792 116.824 69.6504 116.971 69.567C117.119 69.4798 117.299 69.4362 117.512 69.4362H117.699V69.9365H117.432C117.216 69.9365 117.042 70.0047 116.909 70.1412C116.776 70.2738 116.71 70.4633 116.71 70.7097V72.5345H116.181ZM118.169 72.5345V68.231H118.697V72.5345H118.169ZM119.683 73.7852C119.615 73.7852 119.546 73.7796 119.478 73.7682C119.41 73.7606 119.345 73.7436 119.285 73.717V73.2452C119.326 73.249 119.378 73.2565 119.438 73.2679C119.503 73.2793 119.565 73.285 119.626 73.285C119.804 73.285 119.939 73.2452 120.03 73.1656C120.124 73.086 120.213 72.9514 120.297 72.7619L120.49 72.3015L120.479 72.7619L119.171 69.4703H119.745L120.763 72.0854H120.592L121.604 69.4703H122.19L120.808 72.8984C120.744 73.0614 120.661 73.2111 120.558 73.3475C120.46 73.4839 120.338 73.5901 120.194 73.6659C120.05 73.7455 119.88 73.7852 119.683 73.7852Z" fill="#0C1931"/>
<path d="M149.479 72.5345L150.996 68.2992H151.656L153.174 72.5345H152.577L152.23 71.5397H150.422L150.075 72.5345H149.479ZM150.598 71.028H152.054L151.247 68.7029H151.406L150.598 71.028ZM153.645 72.5345V68.231H154.174V72.5345H153.645ZM154.994 72.5345V68.231H155.523V72.5345H154.994Z" fill="#0C1931"/>
<path d="M24.1962 107.591V104.726H18.1417V103.054L24.111 94.8848H26.1064V103.054H27.8631V104.726H26.1064V107.591H24.1962ZM19.6255 103.788L19.3014 103.054H24.1962V96.488L24.742 96.6586L19.6255 103.788ZM31.1629 107.591V96.5903H28.7241V94.8848H33.1584V107.591H31.1629ZM39.8712 107.795C38.9844 107.795 38.2055 107.625 37.5347 107.284C36.8752 106.931 36.3636 106.465 35.9998 105.885C35.6359 105.294 35.454 104.64 35.454 103.924C35.454 103.105 35.6757 102.4 36.1191 101.809C36.5739 101.207 37.2107 100.769 38.0293 100.496L37.944 101.008C37.3414 100.78 36.8639 100.399 36.5114 99.8649C36.1703 99.3191 35.9998 98.7222 35.9998 98.0741C35.9998 97.426 36.1646 96.8462 36.4944 96.3345C36.8355 95.8229 37.2959 95.4192 37.8758 95.1236C38.467 94.828 39.1322 94.6802 39.8712 94.6802C40.6217 94.6802 41.2868 94.828 41.8667 95.1236C42.4465 95.4079 42.9013 95.8058 43.2311 96.3175C43.5722 96.8291 43.7427 97.4147 43.7427 98.0741C43.7427 98.745 43.5665 99.3476 43.214 99.882C42.8729 100.405 42.4068 100.78 41.8155 101.008L41.7302 100.496C42.5489 100.78 43.1856 101.218 43.6404 101.809C44.0952 102.4 44.3226 103.105 44.3226 103.924C44.3226 104.64 44.135 105.294 43.7598 105.885C43.3959 106.465 42.8786 106.931 42.2078 107.284C41.5369 107.625 40.7581 107.795 39.8712 107.795ZM39.8712 106.09C40.3602 106.09 40.7865 105.999 41.1504 105.817C41.5142 105.624 41.7985 105.362 42.0031 105.033C42.2078 104.703 42.3101 104.316 42.3101 103.873C42.3101 103.429 42.2078 103.043 42.0031 102.713C41.7985 102.383 41.5142 102.128 41.1504 101.946C40.7865 101.764 40.3602 101.673 39.8712 101.673C39.3937 101.673 38.973 101.764 38.6092 101.946C38.2453 102.128 37.9611 102.383 37.7564 102.713C37.5518 103.043 37.4494 103.429 37.4494 103.873C37.4494 104.316 37.5518 104.703 37.7564 105.033C37.9611 105.362 38.2453 105.624 38.6092 105.817C38.973 105.999 39.3937 106.09 39.8712 106.09ZM39.8712 99.9672C40.2351 99.9672 40.5534 99.8933 40.8263 99.7455C41.1106 99.5863 41.3323 99.3703 41.4915 99.0974C41.6506 98.8245 41.7302 98.5176 41.7302 98.1765C41.7302 97.824 41.6506 97.517 41.4915 97.2555C41.3323 96.9826 41.1106 96.7723 40.8263 96.6245C40.5534 96.4653 40.2351 96.3857 39.8712 96.3857C39.5188 96.3857 39.2004 96.4653 38.9162 96.6245C38.6319 96.7723 38.4102 96.9826 38.251 97.2555C38.0918 97.517 38.0122 97.824 38.0122 98.1765C38.0122 98.5176 38.0918 98.8245 38.251 99.0974C38.4102 99.3703 38.6319 99.5863 38.9162 99.7455C39.2004 99.8933 39.5188 99.9672 39.8712 99.9672Z" fill="white"/>
<path d="M45.5808 108.728L48.7454 100.911H49.9298L46.7652 108.728H45.5808ZM53.5819 107.591V105.999H50.2183V105.07L53.5345 100.532H54.6431V105.07H55.619V105.999H54.6431V107.591H53.5819ZM51.0426 105.478L50.8626 105.07H53.5819V101.423L53.8851 101.517L51.0426 105.478ZM56.8364 107.591L59.2525 104.464L59.442 104.587C59.3536 104.682 59.2557 104.758 59.1483 104.815C59.0473 104.871 58.9367 104.913 58.8167 104.938C58.703 104.963 58.5798 104.976 58.4472 104.976C58.024 104.976 57.645 104.881 57.3102 104.691C56.9754 104.496 56.7101 104.23 56.5143 103.896C56.3248 103.554 56.23 103.169 56.23 102.74C56.23 102.291 56.3342 101.893 56.5427 101.546C56.7511 101.198 57.0354 100.924 57.3954 100.721C57.7555 100.519 58.1661 100.418 58.6272 100.418C59.0946 100.418 59.5052 100.519 59.8589 100.721C60.219 100.924 60.5001 101.202 60.7022 101.555C60.9107 101.903 61.0149 102.301 61.0149 102.749C61.0149 102.989 60.9896 103.226 60.9391 103.46C60.8886 103.693 60.8001 103.937 60.6738 104.189C60.5475 104.436 60.3706 104.707 60.1432 105.004L58.1724 107.591H56.8364ZM58.6272 104.038C58.8735 104.038 59.0915 103.981 59.281 103.867C59.4705 103.753 59.6221 103.599 59.7358 103.403C59.8495 103.207 59.9063 102.983 59.9063 102.73C59.9063 102.471 59.8495 102.244 59.7358 102.048C59.6221 101.846 59.4673 101.691 59.2715 101.584C59.082 101.47 58.8672 101.413 58.6272 101.413C58.3872 101.413 58.1692 101.47 57.9734 101.584C57.7839 101.691 57.6323 101.846 57.5186 102.048C57.4049 102.244 57.3481 102.471 57.3481 102.73C57.3481 102.983 57.4018 103.207 57.5091 103.403C57.6228 103.599 57.7776 103.753 57.9734 103.867C58.1692 103.981 58.3872 104.038 58.6272 104.038ZM63.9527 107.705C63.4915 107.705 63.081 107.603 62.7209 107.401C62.3609 107.199 62.0766 106.921 61.8682 106.568C61.666 106.214 61.565 105.813 61.565 105.364C61.565 105.13 61.5902 104.897 61.6408 104.663C61.6913 104.429 61.7797 104.186 61.9061 103.933C62.0387 103.681 62.2156 103.409 62.4367 103.119L64.4075 100.532H65.7434L63.3273 103.659L63.1378 103.536C63.2262 103.434 63.321 103.355 63.4221 103.299C63.5294 103.242 63.64 103.201 63.7537 103.175C63.8737 103.15 64 103.138 64.1327 103.138C64.5559 103.138 64.9349 103.235 65.2697 103.431C65.6045 103.627 65.8666 103.892 66.0561 104.227C66.2519 104.562 66.3498 104.947 66.3498 105.383C66.3498 105.825 66.2456 106.223 66.0372 106.577C65.8287 106.924 65.5445 107.199 65.1844 107.401C64.8307 107.603 64.4201 107.705 63.9527 107.705ZM63.9527 106.71C64.199 106.71 64.4169 106.653 64.6064 106.539C64.7959 106.425 64.9475 106.271 65.0612 106.075C65.1749 105.873 65.2318 105.645 65.2318 105.393C65.2318 105.134 65.1749 104.906 65.0612 104.71C64.9539 104.515 64.8023 104.363 64.6064 104.256C64.4169 104.142 64.199 104.085 63.9527 104.085C63.7126 104.085 63.4947 104.142 63.2989 104.256C63.1094 104.363 62.9578 104.515 62.8441 104.71C62.7304 104.906 62.6735 105.134 62.6735 105.393C62.6735 105.645 62.7304 105.873 62.8441 106.075C62.9578 106.271 63.1094 106.425 63.2989 106.539C63.4947 106.653 63.7126 106.71 63.9527 106.71Z" fill="#D5D5D5"/>
<path d="M18.8893 121.591V117.247H17.5495V116.65H20.8658V117.247H19.5459V121.591H18.8893ZM22.0722 121.67C21.8378 121.67 21.63 121.628 21.4487 121.544C21.2718 121.456 21.1326 121.337 21.0309 121.186C20.9292 121.031 20.8783 120.855 20.8783 120.656C20.8783 120.466 20.9181 120.295 20.9977 120.145C21.0817 119.99 21.2099 119.86 21.3824 119.754C21.5592 119.647 21.7803 119.572 22.0456 119.528L23.3721 119.309V119.827L22.1849 120.026C21.955 120.065 21.787 120.138 21.6808 120.244C21.5791 120.351 21.5283 120.481 21.5283 120.636C21.5283 120.782 21.5858 120.903 21.7007 121.001C21.8201 121.098 21.9683 121.146 22.1451 121.146C22.3706 121.146 22.5652 121.1 22.7288 121.007C22.8968 120.91 23.0272 120.779 23.1201 120.616C23.2174 120.452 23.266 120.271 23.266 120.072V119.163C23.266 118.969 23.1931 118.812 23.0471 118.692C22.9056 118.569 22.7177 118.507 22.4834 118.507C22.28 118.507 22.0987 118.56 21.9395 118.666C21.7848 118.768 21.6698 118.905 21.5946 119.077L21.0574 118.799C21.1237 118.635 21.2298 118.489 21.3757 118.361C21.5217 118.228 21.6919 118.124 21.8864 118.049C22.081 117.974 22.2844 117.936 22.4966 117.936C22.7708 117.936 23.0118 117.989 23.2196 118.095C23.4274 118.197 23.5888 118.341 23.7038 118.527C23.8231 118.708 23.8828 118.92 23.8828 119.163V121.591H23.2793V120.914L23.392 120.954C23.3169 121.096 23.2152 121.219 23.0869 121.326C22.9587 121.432 22.8084 121.516 22.6359 121.578C22.4635 121.639 22.2756 121.67 22.0722 121.67ZM26.1193 121.67C25.7611 121.67 25.4494 121.582 25.1841 121.405C24.9188 121.228 24.7309 120.989 24.6203 120.689L25.1111 120.45C25.2128 120.662 25.3521 120.83 25.529 120.954C25.7059 121.078 25.9026 121.14 26.1193 121.14C26.3138 121.14 26.4752 121.093 26.6035 121.001C26.7317 120.908 26.7958 120.786 26.7958 120.636C26.7958 120.53 26.7648 120.446 26.7029 120.384C26.6455 120.317 26.5747 120.267 26.4907 120.231C26.4067 120.191 26.3293 120.163 26.2586 120.145L25.7213 119.992C25.3985 119.9 25.162 119.767 25.0117 119.594C24.8657 119.422 24.7928 119.221 24.7928 118.991C24.7928 118.779 24.8458 118.595 24.952 118.44C25.0625 118.281 25.2106 118.157 25.3963 118.069C25.5865 117.981 25.7987 117.936 26.0331 117.936C26.347 117.936 26.6278 118.016 26.8754 118.175C27.1274 118.334 27.3065 118.558 27.4126 118.845L26.9085 119.077C26.829 118.891 26.7096 118.745 26.5504 118.639C26.3912 118.529 26.2121 118.474 26.0132 118.474C25.8319 118.474 25.6882 118.52 25.582 118.613C25.4759 118.701 25.4229 118.814 25.4229 118.951C25.4229 119.053 25.4494 119.137 25.5025 119.203C25.5555 119.265 25.6196 119.314 25.6948 119.349C25.77 119.38 25.8429 119.407 25.9137 119.429L26.4973 119.601C26.7892 119.685 27.0147 119.816 27.1738 119.992C27.3374 120.169 27.4192 120.381 27.4192 120.629C27.4192 120.828 27.364 121.007 27.2534 121.166C27.1429 121.326 26.9903 121.449 26.7958 121.538C26.6012 121.626 26.3757 121.67 26.1193 121.67ZM28.2267 121.591V116.57H28.8435V120.012L28.5915 119.953L30.4884 118.016H31.2777L29.9047 119.455L31.3705 121.591H30.6409L29.3012 119.654L29.6859 119.634L28.6446 120.722L28.8435 120.271V121.591H28.2267ZM33.2052 121.67C32.847 121.67 32.5353 121.582 32.27 121.405C32.0047 121.228 31.8168 120.989 31.7062 120.689L32.197 120.45C32.2987 120.662 32.438 120.83 32.6149 120.954C32.7917 121.078 32.9885 121.14 33.2052 121.14C33.3997 121.14 33.5611 121.093 33.6893 121.001C33.8176 120.908 33.8817 120.786 33.8817 120.636C33.8817 120.53 33.8507 120.446 33.7888 120.384C33.7314 120.317 33.6606 120.267 33.5766 120.231C33.4926 120.191 33.4152 120.163 33.3445 120.145L32.8072 119.992C32.4844 119.9 32.2479 119.767 32.0975 119.594C31.9516 119.422 31.8787 119.221 31.8787 118.991C31.8787 118.779 31.9317 118.595 32.0379 118.44C32.1484 118.281 32.2965 118.157 32.4822 118.069C32.6724 117.981 32.8846 117.936 33.119 117.936C33.4329 117.936 33.7137 118.016 33.9613 118.175C34.2133 118.334 34.3924 118.558 34.4985 118.845L33.9944 119.077C33.9149 118.891 33.7955 118.745 33.6363 118.639C33.4771 118.529 33.298 118.474 33.0991 118.474C32.9178 118.474 32.7741 118.52 32.6679 118.613C32.5618 118.701 32.5088 118.814 32.5088 118.951C32.5088 119.053 32.5353 119.137 32.5884 119.203C32.6414 119.265 32.7055 119.314 32.7807 119.349C32.8559 119.38 32.9288 119.407 32.9996 119.429L33.5832 119.601C33.8751 119.685 34.1006 119.816 34.2597 119.992C34.4233 120.169 34.5051 120.381 34.5051 120.629C34.5051 120.828 34.4499 121.007 34.3393 121.166C34.2288 121.326 34.0762 121.449 33.8817 121.538C33.6871 121.626 33.4616 121.67 33.2052 121.67ZM38.1172 121.67C37.7678 121.67 37.4561 121.589 37.182 121.425C36.9123 121.261 36.7 121.038 36.5453 120.755C36.3905 120.472 36.3131 120.154 36.3131 119.8C36.3131 119.442 36.3905 119.124 36.5453 118.845C36.7 118.566 36.9123 118.345 37.182 118.182C37.4561 118.018 37.7678 117.936 38.1172 117.936C38.3515 117.936 38.5704 117.978 38.7738 118.062C38.9772 118.146 39.1563 118.259 39.311 118.401C39.4658 118.542 39.5785 118.708 39.6493 118.898L39.0988 119.163C39.0148 118.978 38.8865 118.827 38.7141 118.712C38.5416 118.593 38.3427 118.533 38.1172 118.533C37.9005 118.533 37.7037 118.589 37.5269 118.699C37.3544 118.81 37.2174 118.96 37.1157 119.15C37.014 119.34 36.9631 119.559 36.9631 119.807C36.9631 120.045 37.014 120.262 37.1157 120.457C37.2174 120.647 37.3544 120.797 37.5269 120.908C37.7037 121.018 37.9005 121.073 38.1172 121.073C38.3427 121.073 38.5416 121.016 38.7141 120.901C38.8865 120.782 39.0148 120.625 39.0988 120.43L39.6493 120.709C39.5785 120.894 39.4658 121.06 39.311 121.206C39.1563 121.348 38.9772 121.46 38.7738 121.544C38.5704 121.628 38.3515 121.67 38.1172 121.67ZM42.1533 121.67C41.8084 121.67 41.4967 121.591 41.2181 121.432C40.9395 121.268 40.7185 121.045 40.5549 120.762C40.3913 120.479 40.3095 120.158 40.3095 119.8C40.3095 119.442 40.3891 119.124 40.5482 118.845C40.7118 118.566 40.9329 118.345 41.2115 118.182C41.49 118.018 41.804 117.936 42.1533 117.936C42.4982 117.936 42.8099 118.018 43.0885 118.182C43.367 118.341 43.5859 118.56 43.7451 118.838C43.9087 119.117 43.9905 119.437 43.9905 119.8C43.9905 120.163 43.9065 120.485 43.7385 120.768C43.5704 121.047 43.3471 121.268 43.0686 121.432C42.7944 121.591 42.4893 121.67 42.1533 121.67ZM42.1533 121.073C42.3744 121.073 42.5734 121.018 42.7502 120.908C42.9315 120.797 43.073 120.645 43.1747 120.45C43.2808 120.255 43.3339 120.039 43.3339 119.8C43.3339 119.557 43.2808 119.342 43.1747 119.157C43.073 118.967 42.9315 118.816 42.7502 118.706C42.5734 118.591 42.3744 118.533 42.1533 118.533C41.9278 118.533 41.7244 118.591 41.5431 118.706C41.3662 118.816 41.2247 118.967 41.1186 119.157C41.0125 119.342 40.9594 119.557 40.9594 119.8C40.9594 120.039 41.0125 120.255 41.1186 120.45C41.2247 120.645 41.3662 120.797 41.5431 120.908C41.7244 121.018 41.9278 121.073 42.1533 121.073ZM44.795 121.591V118.016H45.3986V118.745L45.3123 118.633C45.4008 118.407 45.5423 118.235 45.7368 118.115C45.9314 117.996 46.1502 117.936 46.3934 117.936C46.672 117.936 46.9218 118.014 47.1429 118.168C47.3684 118.323 47.5232 118.527 47.6072 118.779L47.4347 118.785C47.5276 118.507 47.6846 118.297 47.9056 118.155C48.1267 118.009 48.3721 117.936 48.6418 117.936C48.8895 117.936 49.1128 117.994 49.3117 118.109C49.5151 118.224 49.6765 118.383 49.7959 118.586C49.9153 118.79 49.975 119.02 49.975 119.276V121.591H49.3515V119.475C49.3515 119.276 49.3162 119.108 49.2454 118.971C49.1747 118.834 49.0774 118.728 48.9536 118.653C48.8342 118.573 48.6927 118.533 48.5291 118.533C48.3699 118.533 48.2262 118.573 48.098 118.653C47.9742 118.728 47.8747 118.836 47.7995 118.978C47.7288 119.115 47.6934 119.28 47.6934 119.475V121.591H47.0699V119.475C47.0699 119.276 47.0346 119.108 46.9638 118.971C46.8931 118.834 46.7958 118.728 46.672 118.653C46.5526 118.573 46.4111 118.533 46.2475 118.533C46.0883 118.533 45.9446 118.573 45.8164 118.653C45.6926 118.728 45.5931 118.836 45.5179 118.978C45.4472 119.115 45.4118 119.28 45.4118 119.475V121.591H44.795ZM50.851 122.917V118.016H51.4546V118.785L51.375 118.633C51.5077 118.42 51.6889 118.252 51.9189 118.129C52.1488 118 52.4119 117.936 52.7081 117.936C53.0442 117.936 53.3449 118.018 53.6102 118.182C53.8799 118.345 54.0921 118.569 54.2469 118.852C54.4016 119.13 54.479 119.449 54.479 119.807C54.479 120.156 54.4016 120.472 54.2469 120.755C54.0921 121.038 53.8799 121.261 53.6102 121.425C53.3449 121.589 53.042 121.67 52.7015 121.67C52.4141 121.67 52.151 121.606 51.9122 121.478C51.6779 121.35 51.4966 121.169 51.3684 120.934L51.4679 120.828V122.917H50.851ZM52.6551 121.073C52.8806 121.073 53.0818 121.018 53.2586 120.908C53.4355 120.797 53.5726 120.647 53.6699 120.457C53.7716 120.262 53.8224 120.045 53.8224 119.807C53.8224 119.559 53.7716 119.342 53.6699 119.157C53.5726 118.967 53.4355 118.816 53.2586 118.706C53.0818 118.591 52.8806 118.533 52.6551 118.533C52.4296 118.533 52.2262 118.589 52.0449 118.699C51.868 118.81 51.7265 118.962 51.6204 119.157C51.5187 119.347 51.4679 119.563 51.4679 119.807C51.4679 120.045 51.5187 120.262 51.6204 120.457C51.7265 120.647 51.868 120.797 52.0449 120.908C52.2262 121.018 52.4296 121.073 52.6551 121.073ZM55.2878 121.591V116.57H55.9046V121.591H55.2878ZM58.5066 121.67C58.1617 121.67 57.8544 121.589 57.5847 121.425C57.315 121.261 57.1027 121.038 56.948 120.755C56.7932 120.468 56.7158 120.147 56.7158 119.793C56.7158 119.435 56.791 119.117 56.9413 118.838C57.0961 118.56 57.3039 118.341 57.5648 118.182C57.8301 118.018 58.1263 117.936 58.4535 117.936C58.7188 117.936 58.9532 117.985 59.1566 118.082C59.3644 118.175 59.5391 118.303 59.6806 118.467C59.8265 118.626 59.937 118.81 60.0122 119.017C60.0918 119.221 60.1316 119.433 60.1316 119.654C60.1316 119.703 60.1271 119.758 60.1183 119.82C60.1139 119.877 60.1072 119.933 60.0984 119.986H57.1668V119.455H59.7402L59.4484 119.694C59.4882 119.464 59.4661 119.258 59.3821 119.077C59.2981 118.896 59.1743 118.752 59.0107 118.646C58.8471 118.54 58.6614 118.487 58.4535 118.487C58.2457 118.487 58.0556 118.54 57.8831 118.646C57.7107 118.752 57.5758 118.905 57.4786 119.104C57.3857 119.298 57.3481 119.53 57.3658 119.8C57.3481 120.061 57.3879 120.291 57.4852 120.49C57.5869 120.684 57.7284 120.837 57.9097 120.947C58.0954 121.054 58.2966 121.107 58.5132 121.107C58.752 121.107 58.9532 121.051 59.1168 120.941C59.2804 120.83 59.413 120.689 59.5147 120.516L60.0321 120.782C59.9613 120.945 59.8508 121.096 59.7005 121.233C59.5545 121.365 59.3799 121.471 59.1765 121.551C58.9775 121.631 58.7542 121.67 58.5066 121.67ZM62.3883 121.631C62.039 121.631 61.7693 121.531 61.5792 121.332C61.3935 121.133 61.3006 120.852 61.3006 120.49V118.606H60.6506V118.016H60.7833C60.9424 118.016 61.0685 117.967 61.1613 117.87C61.2542 117.773 61.3006 117.644 61.3006 117.485V117.193H61.9174V118.016H62.72V118.606H61.9174V120.47C61.9174 120.589 61.9351 120.693 61.9705 120.782C62.0103 120.87 62.0744 120.941 62.1628 120.994C62.2513 121.043 62.3684 121.067 62.5143 121.067C62.5453 121.067 62.5829 121.065 62.6271 121.06C62.6757 121.056 62.72 121.051 62.7597 121.047V121.591C62.7023 121.604 62.6382 121.613 62.5674 121.617C62.4967 121.626 62.437 121.631 62.3883 121.631ZM65.1132 121.67C64.7683 121.67 64.461 121.589 64.1913 121.425C63.9216 121.261 63.7093 121.038 63.5546 120.755C63.3998 120.468 63.3224 120.147 63.3224 119.793C63.3224 119.435 63.3976 119.117 63.5479 118.838C63.7027 118.56 63.9105 118.341 64.1714 118.182C64.4367 118.018 64.7329 117.936 65.0601 117.936C65.3254 117.936 65.5598 117.985 65.7632 118.082C65.971 118.175 66.1457 118.303 66.2871 118.467C66.4331 118.626 66.5436 118.81 66.6188 119.017C66.6984 119.221 66.7382 119.433 66.7382 119.654C66.7382 119.703 66.7337 119.758 66.7249 119.82C66.7205 119.877 66.7138 119.933 66.705 119.986H63.7734V119.455H66.3468L66.055 119.694C66.0948 119.464 66.0727 119.258 65.9887 119.077C65.9047 118.896 65.7809 118.752 65.6173 118.646C65.4537 118.54 65.268 118.487 65.0601 118.487C64.8523 118.487 64.6622 118.54 64.4897 118.646C64.3173 118.752 64.1824 118.905 64.0852 119.104C63.9923 119.298 63.9547 119.53 63.9724 119.8C63.9547 120.061 63.9945 120.291 64.0918 120.49C64.1935 120.684 64.335 120.837 64.5163 120.947C64.702 121.054 64.9032 121.107 65.1198 121.107C65.3586 121.107 65.5598 121.051 65.7234 120.941C65.887 120.83 66.0196 120.689 66.1213 120.516L66.6387 120.782C66.5679 120.945 66.4574 121.096 66.307 121.233C66.1611 121.365 65.9865 121.471 65.7831 121.551C65.5841 121.631 65.3608 121.67 65.1132 121.67ZM69.1674 121.67C68.8313 121.67 68.5284 121.589 68.2587 121.425C67.9934 121.261 67.7834 121.038 67.6286 120.755C67.4739 120.472 67.3965 120.156 67.3965 119.807C67.3965 119.449 67.4739 119.13 67.6286 118.852C67.7834 118.569 67.9934 118.345 68.2587 118.182C68.5284 118.018 68.8313 117.936 69.1674 117.936C69.4636 117.936 69.7267 118 69.9566 118.129C70.1866 118.252 70.3678 118.42 70.5005 118.633L70.401 118.785V116.57H71.0245V121.591H70.4209V120.828L70.5005 120.934C70.3767 121.169 70.1954 121.35 69.9566 121.478C69.7223 121.606 69.4592 121.67 69.1674 121.67ZM69.2204 121.073C69.4459 121.073 69.6471 121.018 69.824 120.908C70.0008 120.797 70.1401 120.647 70.2418 120.457C70.3479 120.262 70.401 120.045 70.401 119.807C70.401 119.563 70.3479 119.347 70.2418 119.157C70.1401 118.962 70.0008 118.81 69.824 118.699C69.6471 118.589 69.4459 118.533 69.2204 118.533C68.9993 118.533 68.7982 118.591 68.6169 118.706C68.44 118.816 68.3007 118.967 68.199 119.157C68.0973 119.342 68.0465 119.559 68.0465 119.807C68.0465 120.045 68.0973 120.262 68.199 120.457C68.3007 120.647 68.44 120.797 68.6169 120.908C68.7937 121.018 68.9949 121.073 69.2204 121.073Z" fill="#D5D5D5"/>
<path d="M100.649 107.795C99.7618 107.795 98.983 107.625 98.3122 107.284C97.6527 106.931 97.141 106.465 96.7772 105.885C96.4134 105.294 96.2314 104.64 96.2314 103.924C96.2314 103.105 96.4532 102.4 96.8966 101.809C97.3514 101.207 97.9881 100.769 98.8068 100.496L98.7215 101.008C98.1189 100.78 97.6413 100.399 97.2889 99.8649C96.9478 99.3191 96.7772 98.7222 96.7772 98.0741C96.7772 97.426 96.9421 96.8462 97.2718 96.3345C97.6129 95.8229 98.0734 95.4192 98.6533 95.1236C99.2445 94.828 99.9096 94.6802 100.649 94.6802C101.399 94.6802 102.064 94.828 102.644 95.1236C103.224 95.4079 103.679 95.8058 104.009 96.3175C104.35 96.8291 104.52 97.4147 104.52 98.0741C104.52 98.745 104.344 99.3476 103.991 99.882C103.65 100.405 103.184 100.78 102.593 101.008L102.508 100.496C103.326 100.78 103.963 101.218 104.418 101.809C104.873 102.4 105.1 103.105 105.1 103.924C105.1 104.64 104.912 105.294 104.537 105.885C104.173 106.465 103.656 106.931 102.985 107.284C102.314 107.625 101.536 107.795 100.649 107.795ZM100.649 106.09C101.138 106.09 101.564 105.999 101.928 105.817C102.292 105.624 102.576 105.362 102.781 105.033C102.985 104.703 103.088 104.316 103.088 103.873C103.088 103.429 102.985 103.043 102.781 102.713C102.576 102.383 102.292 102.128 101.928 101.946C101.564 101.764 101.138 101.673 100.649 101.673C100.171 101.673 99.7505 101.764 99.3866 101.946C99.0228 102.128 98.7385 102.383 98.5339 102.713C98.3292 103.043 98.2269 103.429 98.2269 103.873C98.2269 104.316 98.3292 104.703 98.5339 105.033C98.7385 105.362 99.0228 105.624 99.3866 105.817C99.7505 105.999 100.171 106.09 100.649 106.09ZM100.649 99.9672C101.013 99.9672 101.331 99.8933 101.604 99.7455C101.888 99.5863 102.11 99.3703 102.269 99.0974C102.428 98.8245 102.508 98.5176 102.508 98.1765C102.508 97.824 102.428 97.517 102.269 97.2555C102.11 96.9826 101.888 96.7723 101.604 96.6245C101.331 96.4653 101.013 96.3857 100.649 96.3857C100.296 96.3857 99.9779 96.4653 99.6936 96.6245C99.4094 96.7723 99.1876 96.9826 99.0285 97.2555C98.8693 97.517 98.7897 97.824 98.7897 98.1765C98.7897 98.5176 98.8693 98.8245 99.0285 99.0974C99.1876 99.3703 99.4094 99.5863 99.6936 99.7455C99.9779 99.8933 100.296 99.9672 100.649 99.9672ZM112.414 107.591V104.726H106.36V103.054L112.329 94.8848H114.324V103.054H116.081V104.726H114.324V107.591H112.414ZM107.844 103.788L107.519 103.054H112.414V96.488L112.96 96.6586L107.844 103.788Z" fill="white"/>
<path d="M118.679 107.591L124.421 100.532H125.614L119.873 107.591H118.679ZM119.759 104.113C119.411 104.113 119.099 104.031 118.821 103.867C118.543 103.697 118.319 103.472 118.148 103.194C117.984 102.916 117.902 102.607 117.902 102.266C117.902 101.925 117.984 101.615 118.148 101.337C118.319 101.053 118.543 100.829 118.821 100.665C119.099 100.5 119.411 100.418 119.759 100.418C120.106 100.418 120.419 100.5 120.697 100.665C120.975 100.829 121.196 101.053 121.36 101.337C121.524 101.615 121.606 101.925 121.606 102.266C121.606 102.607 121.524 102.916 121.36 103.194C121.196 103.472 120.975 103.697 120.697 103.867C120.419 104.031 120.106 104.113 119.759 104.113ZM119.759 103.251C119.955 103.251 120.122 103.204 120.261 103.109C120.406 103.014 120.517 102.891 120.593 102.74C120.668 102.588 120.706 102.43 120.706 102.266C120.706 102.095 120.668 101.937 120.593 101.792C120.517 101.641 120.406 101.517 120.261 101.423C120.122 101.328 119.955 101.28 119.759 101.28C119.569 101.28 119.402 101.328 119.257 101.423C119.111 101.517 118.998 101.641 118.916 101.792C118.84 101.937 118.802 102.095 118.802 102.266C118.802 102.43 118.84 102.588 118.916 102.74C118.998 102.891 119.111 103.014 119.257 103.109C119.402 103.204 119.569 103.251 119.759 103.251ZM124.487 107.705C124.139 107.705 123.824 107.622 123.539 107.458C123.261 107.288 123.04 107.063 122.876 106.785C122.712 106.508 122.63 106.198 122.63 105.857C122.63 105.516 122.712 105.206 122.876 104.928C123.04 104.644 123.261 104.42 123.539 104.256C123.824 104.091 124.139 104.009 124.487 104.009C124.834 104.009 125.147 104.091 125.425 104.256C125.703 104.42 125.924 104.644 126.088 104.928C126.252 105.206 126.334 105.516 126.334 105.857C126.334 106.198 126.252 106.508 126.088 106.785C125.924 107.063 125.703 107.288 125.425 107.458C125.147 107.622 124.834 107.705 124.487 107.705ZM124.487 106.842C124.683 106.842 124.85 106.795 124.989 106.7C125.128 106.605 125.235 106.482 125.311 106.331C125.393 106.179 125.434 106.021 125.434 105.857C125.434 105.686 125.393 105.528 125.311 105.383C125.235 105.232 125.128 105.108 124.989 105.014C124.85 104.919 124.683 104.871 124.487 104.871C124.297 104.871 124.13 104.919 123.985 105.014C123.839 105.108 123.726 105.232 123.644 105.383C123.568 105.528 123.53 105.686 123.53 105.857C123.53 106.021 123.568 106.179 123.644 106.331C123.726 106.482 123.839 106.605 123.985 106.7C124.13 106.795 124.297 106.842 124.487 106.842Z" fill="#D5D5D5"/>
<path d="M98.1018 121.67C97.7525 121.67 97.4297 121.609 97.1335 121.485C96.8416 121.356 96.5852 121.177 96.3641 120.947C96.1474 120.718 95.9794 120.448 95.86 120.138C95.7406 119.829 95.6809 119.491 95.6809 119.124C95.6809 118.752 95.7406 118.412 95.86 118.102C95.9794 117.793 96.1474 117.523 96.3641 117.293C96.5808 117.063 96.8372 116.886 97.1335 116.762C97.4297 116.634 97.7525 116.57 98.1018 116.57C98.4423 116.57 98.7474 116.63 99.0171 116.749C99.2912 116.868 99.5212 117.023 99.7069 117.213C99.897 117.404 100.032 117.607 100.111 117.824L99.5145 118.095C99.3996 117.821 99.2205 117.6 98.9773 117.432C98.7341 117.26 98.4423 117.174 98.1018 117.174C97.7569 117.174 97.4496 117.255 97.1799 117.419C96.9146 117.583 96.7068 117.81 96.5564 118.102C96.4061 118.394 96.3309 118.734 96.3309 119.124C96.3309 119.508 96.4061 119.846 96.5564 120.138C96.7068 120.43 96.9146 120.658 97.1799 120.821C97.4496 120.985 97.7569 121.067 98.1018 121.067C98.4423 121.067 98.7341 120.983 98.9773 120.815C99.2205 120.642 99.3996 120.419 99.5145 120.145L100.111 120.417C100.032 120.634 99.897 120.837 99.7069 121.027C99.5212 121.217 99.2912 121.372 99.0171 121.491C98.7474 121.611 98.4423 121.67 98.1018 121.67ZM102.556 121.67C102.211 121.67 101.899 121.591 101.621 121.432C101.342 121.268 101.121 121.045 100.957 120.762C100.794 120.479 100.712 120.158 100.712 119.8C100.712 119.442 100.791 119.124 100.951 118.845C101.114 118.566 101.335 118.345 101.614 118.182C101.892 118.018 102.206 117.936 102.556 117.936C102.901 117.936 103.212 118.018 103.491 118.182C103.769 118.341 103.988 118.56 104.148 118.838C104.311 119.117 104.393 119.437 104.393 119.8C104.393 120.163 104.309 120.485 104.141 120.768C103.973 121.047 103.75 121.268 103.471 121.432C103.197 121.591 102.892 121.67 102.556 121.67ZM102.556 121.073C102.777 121.073 102.976 121.018 103.153 120.908C103.334 120.797 103.475 120.645 103.577 120.45C103.683 120.255 103.736 120.039 103.736 119.8C103.736 119.557 103.683 119.342 103.577 119.157C103.475 118.967 103.334 118.816 103.153 118.706C102.976 118.591 102.777 118.533 102.556 118.533C102.33 118.533 102.127 118.591 101.946 118.706C101.769 118.816 101.627 118.967 101.521 119.157C101.415 119.342 101.362 119.557 101.362 119.8C101.362 120.039 101.415 120.255 101.521 120.45C101.627 120.645 101.769 120.797 101.946 120.908C102.127 121.018 102.33 121.073 102.556 121.073ZM105.197 121.591V118.016H105.801V118.745L105.715 118.633C105.803 118.407 105.945 118.235 106.139 118.115C106.334 117.996 106.553 117.936 106.796 117.936C107.074 117.936 107.324 118.014 107.545 118.168C107.771 118.323 107.926 118.527 108.01 118.779L107.837 118.785C107.93 118.507 108.087 118.297 108.308 118.155C108.529 118.009 108.775 117.936 109.044 117.936C109.292 117.936 109.515 117.994 109.714 118.109C109.918 118.224 110.079 118.383 110.198 118.586C110.318 118.79 110.377 119.02 110.377 119.276V121.591H109.754V119.475C109.754 119.276 109.719 119.108 109.648 118.971C109.577 118.834 109.48 118.728 109.356 118.653C109.237 118.573 109.095 118.533 108.932 118.533C108.772 118.533 108.629 118.573 108.5 118.653C108.377 118.728 108.277 118.836 108.202 118.978C108.131 119.115 108.096 119.28 108.096 119.475V121.591H107.472V119.475C107.472 119.276 107.437 119.108 107.366 118.971C107.296 118.834 107.198 118.728 107.074 118.653C106.955 118.573 106.814 118.533 106.65 118.533C106.491 118.533 106.347 118.573 106.219 118.653C106.095 118.728 105.996 118.836 105.92 118.978C105.85 119.115 105.814 119.28 105.814 119.475V121.591H105.197ZM111.253 122.917V118.016H111.857V118.785L111.777 118.633C111.91 118.42 112.091 118.252 112.321 118.129C112.551 118 112.814 117.936 113.111 117.936C113.447 117.936 113.747 118.018 114.013 118.182C114.282 118.345 114.495 118.569 114.649 118.852C114.804 119.13 114.881 119.449 114.881 119.807C114.881 120.156 114.804 120.472 114.649 120.755C114.495 121.038 114.282 121.261 114.013 121.425C113.747 121.589 113.444 121.67 113.104 121.67C112.817 121.67 112.553 121.606 112.315 121.478C112.08 121.35 111.899 121.169 111.771 120.934L111.87 120.828V122.917H111.253ZM113.058 121.073C113.283 121.073 113.484 121.018 113.661 120.908C113.838 120.797 113.975 120.647 114.072 120.457C114.174 120.262 114.225 120.045 114.225 119.807C114.225 119.559 114.174 119.342 114.072 119.157C113.975 118.967 113.838 118.816 113.661 118.706C113.484 118.591 113.283 118.533 113.058 118.533C112.832 118.533 112.629 118.589 112.447 118.699C112.27 118.81 112.129 118.962 112.023 119.157C111.921 119.347 111.87 119.563 111.87 119.807C111.87 120.045 111.921 120.262 112.023 120.457C112.129 120.647 112.27 120.797 112.447 120.908C112.629 121.018 112.832 121.073 113.058 121.073ZM115.69 121.591V116.57H116.307V121.591H115.69ZM118.909 121.67C118.564 121.67 118.257 121.589 117.987 121.425C117.717 121.261 117.505 121.038 117.35 120.755C117.196 120.468 117.118 120.147 117.118 119.793C117.118 119.435 117.193 119.117 117.344 118.838C117.499 118.56 117.706 118.341 117.967 118.182C118.233 118.018 118.529 117.936 118.856 117.936C119.121 117.936 119.356 117.985 119.559 118.082C119.767 118.175 119.942 118.303 120.083 118.467C120.229 118.626 120.339 118.81 120.415 119.017C120.494 119.221 120.534 119.433 120.534 119.654C120.534 119.703 120.53 119.758 120.521 119.82C120.516 119.877 120.51 119.933 120.501 119.986H117.569V119.455H120.143L119.851 119.694C119.891 119.464 119.869 119.258 119.785 119.077C119.701 118.896 119.577 118.752 119.413 118.646C119.25 118.54 119.064 118.487 118.856 118.487C118.648 118.487 118.458 118.54 118.286 118.646C118.113 118.752 117.978 118.905 117.881 119.104C117.788 119.298 117.751 119.53 117.768 119.8C117.751 120.061 117.79 120.291 117.888 120.49C117.989 120.684 118.131 120.837 118.312 120.947C118.498 121.054 118.699 121.107 118.916 121.107C119.154 121.107 119.356 121.051 119.519 120.941C119.683 120.83 119.815 120.689 119.917 120.516L120.435 120.782C120.364 120.945 120.253 121.096 120.103 121.233C119.957 121.365 119.782 121.471 119.579 121.551C119.38 121.631 119.157 121.67 118.909 121.67ZM122.791 121.631C122.441 121.631 122.172 121.531 121.982 121.332C121.796 121.133 121.703 120.852 121.703 120.49V118.606H121.053V118.016H121.186C121.345 118.016 121.471 117.967 121.564 117.87C121.657 117.773 121.703 117.644 121.703 117.485V117.193H122.32V118.016H123.122V118.606H122.32V120.47C122.32 120.589 122.338 120.693 122.373 120.782C122.413 120.87 122.477 120.941 122.565 120.994C122.654 121.043 122.771 121.067 122.917 121.067C122.948 121.067 122.985 121.065 123.03 121.06C123.078 121.056 123.122 121.051 123.162 121.047V121.591C123.105 121.604 123.041 121.613 122.97 121.617C122.899 121.626 122.839 121.631 122.791 121.631ZM123.968 121.591V118.016H124.585V121.591H123.968ZM123.968 117.446V116.65H124.585V117.446H123.968ZM127.24 121.67C126.895 121.67 126.583 121.591 126.305 121.432C126.026 121.268 125.805 121.045 125.641 120.762C125.478 120.479 125.396 120.158 125.396 119.8C125.396 119.442 125.476 119.124 125.635 118.845C125.798 118.566 126.019 118.345 126.298 118.182C126.577 118.018 126.89 117.936 127.24 117.936C127.585 117.936 127.896 118.018 128.175 118.182C128.454 118.341 128.672 118.56 128.832 118.838C128.995 119.117 129.077 119.437 129.077 119.8C129.077 120.163 128.993 120.485 128.825 120.768C128.657 121.047 128.434 121.268 128.155 121.432C127.881 121.591 127.576 121.67 127.24 121.67ZM127.24 121.073C127.461 121.073 127.66 121.018 127.837 120.908C128.018 120.797 128.159 120.645 128.261 120.45C128.367 120.255 128.42 120.039 128.42 119.8C128.42 119.557 128.367 119.342 128.261 119.157C128.159 118.967 128.018 118.816 127.837 118.706C127.66 118.591 127.461 118.533 127.24 118.533C127.014 118.533 126.811 118.591 126.63 118.706C126.453 118.816 126.311 118.967 126.205 119.157C126.099 119.342 126.046 119.557 126.046 119.8C126.046 120.039 126.099 120.255 126.205 120.45C126.311 120.645 126.453 120.797 126.63 120.908C126.811 121.018 127.014 121.073 127.24 121.073ZM129.881 121.591V118.016H130.485V118.712L130.386 118.653C130.474 118.427 130.615 118.252 130.81 118.129C131.009 118 131.241 117.936 131.506 117.936C131.763 117.936 131.991 117.994 132.19 118.109C132.393 118.224 132.552 118.383 132.667 118.586C132.787 118.79 132.846 119.02 132.846 119.276V121.591H132.223V119.475C132.223 119.276 132.187 119.108 132.117 118.971C132.046 118.834 131.944 118.728 131.812 118.653C131.683 118.573 131.535 118.533 131.367 118.533C131.199 118.533 131.049 118.573 130.916 118.653C130.788 118.728 130.686 118.836 130.611 118.978C130.536 119.115 130.498 119.28 130.498 119.475V121.591H129.881ZM134.875 121.591V118.016H135.479V118.673L135.413 118.58C135.497 118.376 135.625 118.226 135.797 118.129C135.97 118.027 136.18 117.976 136.427 117.976H136.646V118.56H136.334C136.082 118.56 135.879 118.639 135.724 118.799C135.569 118.953 135.492 119.174 135.492 119.462V121.591H134.875ZM138.242 121.67C138.008 121.67 137.8 121.628 137.619 121.544C137.442 121.456 137.302 121.337 137.201 121.186C137.099 121.031 137.048 120.855 137.048 120.656C137.048 120.466 137.088 120.295 137.168 120.145C137.252 119.99 137.38 119.86 137.552 119.754C137.729 119.647 137.95 119.572 138.215 119.528L139.542 119.309V119.827L138.355 120.026C138.125 120.065 137.957 120.138 137.851 120.244C137.749 120.351 137.698 120.481 137.698 120.636C137.698 120.782 137.756 120.903 137.871 121.001C137.99 121.098 138.138 121.146 138.315 121.146C138.54 121.146 138.735 121.1 138.899 121.007C139.067 120.91 139.197 120.779 139.29 120.616C139.387 120.452 139.436 120.271 139.436 120.072V119.163C139.436 118.969 139.363 118.812 139.217 118.692C139.075 118.569 138.888 118.507 138.653 118.507C138.45 118.507 138.269 118.56 138.109 118.666C137.955 118.768 137.84 118.905 137.764 119.077L137.227 118.799C137.294 118.635 137.4 118.489 137.546 118.361C137.692 118.228 137.862 118.124 138.056 118.049C138.251 117.974 138.454 117.936 138.666 117.936C138.941 117.936 139.182 117.989 139.389 118.095C139.597 118.197 139.759 118.341 139.874 118.527C139.993 118.708 140.053 118.92 140.053 119.163V121.591H139.449V120.914L139.562 120.954C139.487 121.096 139.385 121.219 139.257 121.326C139.129 121.432 138.978 121.516 138.806 121.578C138.633 121.639 138.445 121.67 138.242 121.67ZM142.397 121.631C142.047 121.631 141.778 121.531 141.588 121.332C141.402 121.133 141.309 120.852 141.309 120.49V118.606H140.659V118.016H140.792C140.951 118.016 141.077 117.967 141.17 117.87C141.263 117.773 141.309 117.644 141.309 117.485V117.193H141.926V118.016H142.728V118.606H141.926V120.47C141.926 120.589 141.944 120.693 141.979 120.782C142.019 120.87 142.083 120.941 142.171 120.994C142.26 121.043 142.377 121.067 142.523 121.067C142.554 121.067 142.591 121.065 142.636 121.06C142.684 121.056 142.728 121.051 142.768 121.047V121.591C142.711 121.604 142.647 121.613 142.576 121.617C142.505 121.626 142.445 121.631 142.397 121.631ZM145.122 121.67C144.777 121.67 144.469 121.589 144.2 121.425C143.93 121.261 143.718 121.038 143.563 120.755C143.408 120.468 143.331 120.147 143.331 119.793C143.331 119.435 143.406 119.117 143.556 118.838C143.711 118.56 143.919 118.341 144.18 118.182C144.445 118.018 144.741 117.936 145.069 117.936C145.334 117.936 145.568 117.985 145.772 118.082C145.979 118.175 146.154 118.303 146.296 118.467C146.442 118.626 146.552 118.81 146.627 119.017C146.707 119.221 146.747 119.433 146.747 119.654C146.747 119.703 146.742 119.758 146.733 119.82C146.729 119.877 146.722 119.933 146.713 119.986H143.782V119.455H146.355L146.063 119.694C146.103 119.464 146.081 119.258 145.997 119.077C145.913 118.896 145.789 118.752 145.626 118.646C145.462 118.54 145.276 118.487 145.069 118.487C144.861 118.487 144.671 118.54 144.498 118.646C144.326 118.752 144.191 118.905 144.094 119.104C144.001 119.298 143.963 119.53 143.981 119.8C143.963 120.061 144.003 120.291 144.1 120.49C144.202 120.684 144.343 120.837 144.525 120.947C144.71 121.054 144.912 121.107 145.128 121.107C145.367 121.107 145.568 121.051 145.732 120.941C145.895 120.83 146.028 120.689 146.13 120.516L146.647 120.782C146.576 120.945 146.466 121.096 146.316 121.233C146.17 121.365 145.995 121.471 145.792 121.551C145.593 121.631 145.369 121.67 145.122 121.67Z" fill="#D5D5D5"/>
<path d="M17.4766 134.066V211.761" stroke="#181A1B" stroke-width="0.47375" stroke-linecap="round" stroke-dasharray="3.79 3.79"/>
<path d="M43.4097 134.066V211.761" stroke="#181A1B" stroke-width="0.47375" stroke-linecap="round" stroke-dasharray="3.79 3.79"/>
<path d="M69.3433 134.066V211.761" stroke="#181A1B" stroke-width="0.47375" stroke-linecap="round" stroke-dasharray="3.79 3.79"/>
<path d="M95.2764 134.066V211.761" stroke="#181A1B" stroke-width="0.47375" stroke-linecap="round" stroke-dasharray="3.79 3.79"/>
<path d="M121.21 134.066V211.761" stroke="#181A1B" stroke-width="0.47375" stroke-linecap="round" stroke-dasharray="3.79 3.79"/>
<path d="M147.143 134.066V211.761" stroke="#181A1B" stroke-width="0.47375" stroke-linecap="round" stroke-dasharray="3.79 3.79"/>
<path d="M173.077 134.066V211.761" stroke="#181A1B" stroke-width="0.47375" stroke-linecap="round" stroke-dasharray="3.79 3.79"/>
<g clip-path="url(#clip1_46_3894)">
<rect x="17.4766" y="137.856" width="125.28" height="9.475" rx="2.36875" fill="#CD5037" fill-opacity="0.16"/>
<rect x="17.4766" y="137.856" width="94.96" height="9.475" rx="2.36875" fill="#CD5037"/>
</g>
<g clip-path="url(#clip2_46_3894)">
<rect x="17.4766" y="153.016" width="79.8" height="9.475" rx="2.36875" fill="#2E72B8" fill-opacity="0.16"/>
<rect x="17.4766" y="153.016" width="72.22" height="9.475" rx="2.36875" fill="#2E72B8"/>
</g>
<g clip-path="url(#clip3_46_3894)">
<rect x="17.4766" y="168.176" width="49.48" height="9.475" rx="2.36875" fill="#05BD7A" fill-opacity="0.16"/>
<rect x="17.4766" y="168.176" width="38.11" height="9.475" rx="2.36875" fill="#05BD7A"/>
</g>
<g clip-path="url(#clip4_46_3894)">
<rect x="17.4766" y="183.336" width="136.65" height="9.475" rx="2.36875" fill="#DDA73C" fill-opacity="0.16"/>
<rect x="17.4766" y="183.336" width="72.22" height="9.475" rx="2.36875" fill="#DDA73C"/>
</g>
<g clip-path="url(#clip5_46_3894)">
<rect x="17.4766" y="198.496" width="94.96" height="9.475" rx="2.36875" fill="#2B2E31" fill-opacity="0.16"/>
<rect x="17.4766" y="198.496" width="58.0075" height="9.475" rx="2.36875" fill="#2B2E31"/>
</g>
<defs>
<clipPath id="clip0_46_3894">
<rect width="9.475" height="9.475" fill="white" transform="translate(117.172 13.6846)"/>
</clipPath>
<clipPath id="clip1_46_3894">
<rect x="17.4766" y="137.856" width="125.28" height="9.475" rx="2.36875" fill="white"/>
</clipPath>
<clipPath id="clip2_46_3894">
<rect x="17.4766" y="153.016" width="79.8" height="9.475" rx="2.36875" fill="white"/>
</clipPath>
<clipPath id="clip3_46_3894">
<rect x="17.4766" y="168.176" width="49.48" height="9.475" rx="2.36875" fill="white"/>
</clipPath>
<clipPath id="clip4_46_3894">
<rect x="17.4766" y="183.336" width="136.65" height="9.475" rx="2.36875" fill="white"/>
</clipPath>
<clipPath id="clip5_46_3894">
<rect x="17.4766" y="198.496" width="94.96" height="9.475" rx="2.36875" fill="white"/>
</clipPath>
</defs>
</svg>
