<svg width="16" height="16" viewBox="0 0 16 16" fill="none" xmlns="http://www.w3.org/2000/svg">
<path d="M12 12.5734H11.4933C10.96 12.5734 10.4533 12.78 10.08 13.1534L8.93998 14.28C8.41998 14.7934 7.57334 14.7934 7.05334 14.28L5.91333 13.1534C5.54 12.78 5.02667 12.5734 4.5 12.5734H4C2.89333 12.5734 2 11.6867 2 10.5934V3.31337C2 2.22004 2.89333 1.33337 4 1.33337H12C13.1067 1.33337 14 2.22004 14 3.31337V10.5867C14 11.68 13.1067 12.5734 12 12.5734Z" stroke="#2C7EF8" stroke-miterlimit="10" stroke-linecap="round" stroke-linejoin="round"/>
<path d="M8.04671 5.9667C8.02005 5.9667 7.98003 5.9667 7.9467 5.9667C7.2467 5.94003 6.69336 5.37337 6.69336 4.6667C6.69336 3.9467 7.27337 3.3667 7.99337 3.3667C8.71337 3.3667 9.29338 3.95337 9.29338 4.6667C9.30004 5.37337 8.74671 5.9467 8.04671 5.9667Z" stroke="#2C7EF8" stroke-linecap="round" stroke-linejoin="round"/>
<path d="M6.16646 7.97339C5.2798 8.56672 5.2798 9.53339 6.16646 10.1267C7.17313 10.8001 8.82646 10.8001 9.83313 10.1267C10.7198 9.53339 10.7198 8.56672 9.83313 7.97339C8.82646 7.30672 7.1798 7.30672 6.16646 7.97339Z" stroke="#2C7EF8" stroke-linecap="round" stroke-linejoin="round"/>
</svg>
