<svg width="16" height="16" viewBox="0 0 16 16" fill="none" xmlns="http://www.w3.org/2000/svg">
<path fill-rule="evenodd" clip-rule="evenodd" d="M0 8C0 3.58172 3.58172 0 8 0C12.4183 0 16 3.58172 16 8C16 12.4183 12.4183 16 8 16C3.58172 16 0 12.4183 0 8ZM11.05 5.75C11.4 5.7 11.7 5.65 12 5.5C11.8 5.85 11.5 6.15 11.15 6.35C11.25 8.7 9.55 11.25 6.5 11.25C5.6 11.25 4.75 10.95 4 10.5C4.85 10.6 5.75 10.35 6.35 9.9C5.6 9.9 5 9.4 4.8 8.75C5.05 8.8 5.3 8.75 5.55 8.7C4.8 8.5 4.25 7.8 4.25 7.05C4.5 7.15 4.75 7.25 5 7.25C4.3 6.75 4.05 5.8 4.5 5.05C5.35 6.05 6.55 6.7 7.9 6.75C7.65 5.75 8.45 4.75 9.5 4.75C9.95 4.75 10.4 4.95 10.7 5.25C11.1 5.15 11.45 5.05 11.75 4.85C11.65 5.25 11.4 5.55 11.05 5.75Z" fill="black"/>
</svg>
