<svg width="17" height="16" viewBox="0 0 17 16" fill="none" xmlns="http://www.w3.org/2000/svg">
<path d="M2.78571 1.71429C2.78571 1.25963 2.96633 0.823594 3.28782 0.502103C3.60931 0.180612 4.04534 0 4.5 0H12.5C12.9547 0 13.3907 0.180612 13.7122 0.502103C14.0337 0.823594 14.2143 1.25963 14.2143 1.71429V4.57143H13.0714V1.71429C13.0714 1.56273 13.0112 1.41739 12.9041 1.31022C12.7969 1.20306 12.6516 1.14286 12.5 1.14286H4.5C4.34845 1.14286 4.2031 1.20306 4.09594 1.31022C3.98878 1.41739 3.92857 1.56273 3.92857 1.71429V5.71429H10.2143C9.84262 6.20846 9.64203 6.81024 9.64286 7.42857V14.2857C9.64286 14.9291 9.85543 15.5223 10.2143 16H2.21429C1.75963 16 1.32359 15.8194 1.0021 15.4979C0.680612 15.1764 0.5 14.7404 0.5 14.2857V8C0.5 7.39379 0.740816 6.81241 1.16947 6.38376C1.59812 5.9551 2.17951 5.71429 2.78571 5.71429V1.71429ZM4.21429 8.71429C4.21429 8.52485 4.13903 8.34316 4.00508 8.20921C3.87112 8.07525 3.68944 8 3.5 8C3.31056 8 3.12888 8.07525 2.99492 8.20921C2.86097 8.34316 2.78571 8.52485 2.78571 8.71429C2.78571 8.90373 2.86097 9.08541 2.99492 9.21936C3.12888 9.35332 3.31056 9.42857 3.5 9.42857C3.68944 9.42857 3.87112 9.35332 4.00508 9.21936C4.13903 9.08541 4.21429 8.90373 4.21429 8.71429ZM4.21429 11.2857C4.21429 11.0963 4.13903 10.9146 4.00508 10.7806C3.87112 10.6467 3.68944 10.5714 3.5 10.5714C3.31056 10.5714 3.12888 10.6467 2.99492 10.7806C2.86097 10.9146 2.78571 11.0963 2.78571 11.2857C2.78571 11.4752 2.86097 11.6568 2.99492 11.7908C3.12888 11.9247 3.31056 12 3.5 12C3.68944 12 3.87112 11.9247 4.00508 11.7908C4.13903 11.6568 4.21429 11.4752 4.21429 11.2857ZM6.07143 10.7143C5.88199 10.7143 5.70031 10.7895 5.56635 10.9235C5.4324 11.0574 5.35714 11.2391 5.35714 11.4286C5.35714 11.618 5.4324 11.7997 5.56635 11.9336C5.70031 12.0676 5.88199 12.1429 6.07143 12.1429C6.26087 12.1429 6.44255 12.0676 6.57651 11.9336C6.71046 11.7997 6.78571 11.618 6.78571 11.4286C6.78571 11.2391 6.71046 11.0574 6.57651 10.9235C6.44255 10.7895 6.26087 10.7143 6.07143 10.7143ZM6.78571 8.71429C6.78571 8.52485 6.71046 8.34316 6.57651 8.20921C6.44255 8.07525 6.26087 8 6.07143 8C5.88199 8 5.70031 8.07525 5.56635 8.20921C5.4324 8.34316 5.35714 8.52485 5.35714 8.71429C5.35714 8.90373 5.4324 9.08541 5.56635 9.21936C5.70031 9.35332 5.88199 9.42857 6.07143 9.42857C6.26087 9.42857 6.44255 9.35332 6.57651 9.21936C6.71046 9.08541 6.78571 8.90373 6.78571 8.71429ZM12.5 5.71429C12.0453 5.71429 11.6093 5.8949 11.2878 6.21639C10.9663 6.53788 10.7857 6.97392 10.7857 7.42857V14.2857C10.7857 14.7404 10.9663 15.1764 11.2878 15.4979C11.6093 15.8194 12.0453 16 12.5 16H14.7857C15.2404 16 15.6764 15.8194 15.9979 15.4979C16.3194 15.1764 16.5 14.7404 16.5 14.2857V7.42857C16.5 6.97392 16.3194 6.53788 15.9979 6.21639C15.6764 5.8949 15.2404 5.71429 14.7857 5.71429H12.5Z" fill="#2C7EF8"/>
</svg>
