<svg width="22" height="22" viewBox="0 0 22 22" fill="none" xmlns="http://www.w3.org/2000/svg">
<path fill-rule="evenodd" clip-rule="evenodd" d="M11.0001 0.939484C11.5524 0.939484 12.0001 1.3872 12.0001 1.93948V2.01185C12.0001 2.56413 11.5524 3.01185 11.0001 3.01185C10.4478 3.01185 10.0001 2.56413 10.0001 2.01185V1.93948C10.0001 1.3872 10.4478 0.939484 11.0001 0.939484ZM3.83428 3.81948C4.22481 3.42896 4.85797 3.42896 5.24849 3.81948L5.36609 3.93708C5.75661 4.3276 5.75661 4.96076 5.36609 5.35129C4.97557 5.74181 4.3424 5.74181 3.95188 5.35129L3.83428 5.23369C3.44376 4.84317 3.44376 4.21 3.83428 3.81948ZM18.1659 3.81948C18.5564 4.21001 18.5564 4.84318 18.1659 5.2337L18.0483 5.35129C17.6578 5.74181 17.0246 5.74181 16.6341 5.35128C16.2436 4.96076 16.2436 4.32759 16.6341 3.93707L16.7517 3.81948C17.1422 3.42895 17.7754 3.42896 18.1659 3.81948ZM0.954285 10.9853C0.954285 10.433 1.402 9.9853 1.95428 9.9853H2.02665C2.57894 9.9853 3.02665 10.433 3.02665 10.9853C3.02665 11.5376 2.57894 11.9853 2.02665 11.9853H1.95428C1.402 11.9853 0.954285 11.5376 0.954285 10.9853ZM18.9735 10.9853C18.9735 10.433 19.4213 9.9853 19.9735 9.9853H20.0459C20.5982 9.9853 21.0459 10.433 21.0459 10.9853C21.0459 11.5376 20.5982 11.9853 20.0459 11.9853H19.9735C19.4213 11.9853 18.9735 11.5376 18.9735 10.9853ZM5.36609 16.6193C5.75661 17.0098 5.75662 17.643 5.36609 18.0335L5.2485 18.1511C4.85798 18.5416 4.22481 18.5416 3.83429 18.1511C3.44376 17.7606 3.44375 17.1274 3.83428 16.7369L3.95187 16.6193C4.34239 16.2288 4.97556 16.2288 5.36609 16.6193ZM16.6341 16.6193C17.0246 16.2288 17.6578 16.2288 18.0483 16.6193L18.1659 16.7369C18.5564 17.1274 18.5564 17.7606 18.1659 18.1511C17.7754 18.5416 17.1422 18.5416 16.7517 18.1511L16.6341 18.0335C16.2436 17.643 16.2436 17.0098 16.6341 16.6193ZM11.0001 18.9587C11.5524 18.9587 12.0001 19.4065 12.0001 19.9587V20.0311C12.0001 20.5834 11.5524 21.0311 11.0001 21.0311C10.4478 21.0311 10.0001 20.5834 10.0001 20.0311V19.9587C10.0001 19.4065 10.4478 18.9587 11.0001 18.9587Z" fill="white"/>
</svg>
